<svg width="108" height="133" viewBox="0 0 108 133" fill="none" xmlns="http://www.w3.org/2000/svg">
<path d="M10.5176 99.752H10.8811L18.6074 118.303C18.8637 118.863 19.2178 119.274 19.5999 119.549C20.0473 119.871 20.5413 120.016 20.9793 120.016H21.3847V120.627H14.5951V120.02H15.0052C15.1357 120.02 15.2708 119.997 15.392 119.95C15.5737 119.885 15.7415 119.768 15.8626 119.605C15.9838 119.446 16.0537 119.241 16.0537 118.989C16.0537 118.821 16.0211 118.635 15.9465 118.425L14.1524 113.628H6.62651L4.74853 118.443C4.67863 118.644 4.64601 118.831 4.64601 118.994C4.64601 119.246 4.72057 119.451 4.84173 119.61C4.96289 119.768 5.13065 119.885 5.31705 119.95C5.43821 119.992 5.56869 120.016 5.69451 120.016H6.10925V120.622H0V120.011H0.419399C0.857439 120.011 1.3514 119.866 1.79876 119.544C2.18554 119.269 2.53504 118.859 2.79134 118.299L9.30601 102.813C9.31067 102.803 10.3545 100.503 10.3545 99.9106V99.752H10.5176ZM10.471 103.816L7.09251 112.443H13.705L10.471 103.816ZM43.6315 100.601V100.153H49.2701V100.764H48.641C48.2729 100.764 47.942 100.895 47.6997 101.11C47.462 101.32 47.3083 101.618 47.285 101.964V113.339C47.285 115.639 46.4928 117.561 45.1087 118.905C43.7201 120.249 41.7442 121.019 39.3816 121.019C36.9491 121.019 34.9173 120.258 33.4914 118.919C32.0654 117.58 31.2499 115.672 31.2499 113.386V102.024C31.2406 101.665 31.0915 101.352 30.8538 101.128C30.6115 100.9 30.2667 100.76 29.8892 100.76H29.2601V100.149H35.4159V100.76H34.7868C34.4141 100.76 34.0785 100.89 33.8362 101.114C33.6032 101.329 33.4494 101.632 33.4355 101.982V112.966C33.4355 115.023 34.0319 116.736 35.0711 117.925C36.1056 119.115 37.5922 119.792 39.3769 119.792C41.2503 119.792 42.8067 119.148 43.8971 118.023C44.9876 116.894 45.6167 115.28 45.6213 113.339V101.987C45.6027 101.637 45.4489 101.334 45.2113 101.119C44.9643 100.895 44.6334 100.764 44.2606 100.764H43.6315V100.601ZM60.8828 100.606L60.8781 100.153H68.7908C70.5756 100.153 72.0202 100.68 73.0174 101.646C74.0193 102.607 74.5692 104.003 74.5692 105.724C74.5692 107.194 73.996 108.64 73.05 109.704C72.2672 110.586 71.2233 111.202 70.0397 111.342C70.2261 111.482 70.4172 111.65 70.6036 111.836C71.009 112.233 71.4097 112.714 71.7126 113.143C71.7173 113.152 74.1871 116.675 75.2915 117.883C75.86 118.504 76.4052 119.041 77.011 119.414C77.6075 119.782 78.2692 120.002 79.0847 120.011H79.2432V120.618H77.505C76.135 120.618 75.0771 120.249 74.2477 119.736C73.4229 119.227 72.8264 118.583 72.365 118.037C72.174 117.809 71.0649 116.213 70.091 114.813C69.336 113.731 68.665 112.765 68.5718 112.653C68.2037 112.186 67.8169 111.711 67.3882 111.351C66.9781 111.006 66.54 110.773 66.0601 110.773H65.897V110.18H66.0601C66.0601 110.18 66.7497 110.194 67.5746 110.171C68.3062 110.152 69.2009 110.059 70.0071 109.653C70.8039 109.252 71.5216 108.542 71.913 107.297C71.9736 107.105 72.0202 106.835 72.0528 106.541C72.0854 106.251 72.0947 105.934 72.0901 105.626C72.0528 104.366 71.708 103.331 71.1162 102.598C70.529 101.88 69.6995 101.455 68.679 101.399C67.6631 101.343 66.5214 101.362 65.7898 101.371L65.2679 101.376V118.364C65.2772 118.821 65.4682 119.232 65.7711 119.53C66.074 119.829 66.4888 120.011 66.9455 120.011H67.4674L67.4767 120.622H60.8735L60.8828 120.011H61.4047C61.8614 120.011 62.2761 119.829 62.579 119.535C62.8819 119.241 63.073 118.831 63.087 118.378V102.411C63.0777 101.954 62.8866 101.544 62.5884 101.245C62.2855 100.946 61.8707 100.764 61.4094 100.764H60.8875L60.8828 100.606ZM97.1282 99.752H97.4917L105.218 118.303C105.474 118.863 105.828 119.274 106.211 119.549C106.658 119.871 107.152 120.016 107.59 120.016H107.995V120.627H101.201V120.02H101.611C101.742 120.02 101.877 119.997 101.998 119.95C102.18 119.885 102.347 119.768 102.469 119.605C102.59 119.446 102.66 119.241 102.66 118.989C102.66 118.821 102.627 118.635 102.548 118.425L100.754 113.628H93.2278L91.3498 118.443C91.2799 118.644 91.2473 118.831 91.2473 118.994C91.2473 119.246 91.3219 119.451 91.443 119.61C91.5642 119.768 91.732 119.885 91.9184 119.95C92.0395 119.992 92.17 120.016 92.2958 120.016H92.7106V120.622H86.6013V120.011H87.0207C87.4588 120.011 87.9481 119.866 88.3954 119.544C88.7822 119.269 89.1363 118.859 89.3926 118.299L95.9073 102.813C95.912 102.803 96.9558 100.503 96.9558 99.9106V99.752H97.1282ZM97.0816 103.816L93.7031 112.443H100.316L97.0816 103.816Z" fill="#907972"/>
<path d="M15.2803 127.859V127.719H16.7761C17.2887 127.719 17.6848 127.84 17.9644 128.05C18.258 128.274 18.4118 128.601 18.4118 128.988C18.4118 129.282 18.3232 129.529 18.1834 129.716C18.0716 129.87 17.9271 129.986 17.7734 130.066C18.0669 130.15 18.3093 130.299 18.491 130.5C18.7193 130.756 18.8452 131.097 18.8452 131.475C18.8452 131.909 18.6774 132.268 18.3698 132.52C18.0716 132.758 17.6429 132.898 17.1023 132.898H15.2803L15.2849 132.693H15.4434C15.5506 132.693 15.6484 132.651 15.7183 132.581C15.7882 132.511 15.8348 132.417 15.8395 132.31V128.302C15.8395 128.199 15.7929 128.101 15.723 128.036C15.6484 127.966 15.5506 127.924 15.4434 127.924H15.2849L15.2803 127.859ZM16.436 128.083V132.501H17.0883C17.4332 132.501 17.7035 132.403 17.8852 132.226C18.0669 132.044 18.1695 131.778 18.1695 131.442V131.428C18.1695 130.92 17.9504 130.616 17.6522 130.453C17.3447 130.28 16.9486 130.234 16.6084 130.238H16.5431L16.5385 130.038H16.6084C16.8181 130.038 17.1023 130.01 17.3307 129.87C17.5543 129.734 17.7314 129.487 17.7314 129.053C17.7314 128.745 17.6429 128.503 17.4751 128.339C17.312 128.181 17.0651 128.092 16.7435 128.092H16.436V128.083ZM25.2061 131.601H25.3738L24.9078 132.898H21.8089L21.8136 132.693H21.9674C22.0745 132.693 22.1724 132.651 22.2423 132.581C22.3122 132.511 22.3588 132.413 22.3635 132.305V128.269C22.3541 128.171 22.3029 128.083 22.2376 128.022C22.1677 127.961 22.0745 127.924 21.972 127.924H21.8136V127.719H23.9851C24.1296 127.719 24.2974 127.7 24.4465 127.677C24.6096 127.653 24.7494 127.621 24.8146 127.593L24.9078 127.555V128.633H24.7028V128.437C24.7028 128.339 24.6655 128.251 24.6049 128.185C24.5443 128.12 24.4605 128.078 24.3626 128.073H22.9599V130.168H24.111C24.1902 130.168 24.2601 130.136 24.3113 130.084C24.3626 130.033 24.3952 129.963 24.3952 129.884V129.711H24.6003V130.985H24.3952V130.812C24.3952 130.733 24.3626 130.663 24.316 130.612C24.2647 130.56 24.1995 130.528 24.1203 130.523H22.9599V132.548H23.9246C24.288 132.548 24.5397 132.455 24.7214 132.296C24.9078 132.137 25.0336 131.909 25.1408 131.643L25.1595 131.601H25.2061ZM30.5045 127.616H30.6117L32.5549 132.282C32.6154 132.417 32.6993 132.515 32.7925 132.581C32.8997 132.655 33.0162 132.693 33.1234 132.693H33.2492V132.898H31.4924V132.693H31.6229C31.6508 132.693 31.6835 132.688 31.7114 132.679C31.7534 132.665 31.7906 132.637 31.8186 132.599C31.8465 132.562 31.8605 132.52 31.8605 132.459C31.8605 132.422 31.8512 132.375 31.8372 132.329L31.3945 131.143H29.5445L29.0785 132.333C29.0599 132.38 29.0552 132.427 29.0552 132.464C29.0552 132.52 29.0739 132.567 29.1018 132.604C29.1298 132.637 29.1671 132.665 29.209 132.679C29.237 132.688 29.2649 132.693 29.2975 132.693H29.428V132.898H27.8436V132.693H27.9741C28.0766 132.693 28.1978 132.655 28.305 132.581C28.3982 132.515 28.482 132.413 28.5426 132.277L30.1736 128.4C30.1736 128.4 30.4346 127.817 30.4346 127.681V127.616H30.5045ZM30.4905 128.736L29.6843 130.798H31.264L30.4905 128.736ZM39.1348 127.859V127.719H40.598V127.924H40.4116C40.3277 127.924 40.2485 127.957 40.1926 128.003C40.1367 128.05 40.1041 128.12 40.0994 128.199V131.05C40.0994 131.633 39.899 132.123 39.5449 132.464C39.1907 132.805 38.6921 133 38.0909 133C37.4758 133 36.9586 132.805 36.5997 132.469C36.2363 132.128 36.0312 131.643 36.0312 131.064V128.218C36.0312 128.139 35.9939 128.064 35.9427 128.013C35.8868 127.961 35.8075 127.929 35.719 127.929H35.5326V127.723H37.131V127.929H36.9446C36.8607 127.929 36.7815 127.961 36.7256 128.008C36.6696 128.059 36.637 128.125 36.6324 128.209V130.962C36.6324 131.47 36.7815 131.895 37.0378 132.189C37.2941 132.483 37.6576 132.646 38.0956 132.646C38.5569 132.646 38.9391 132.487 39.2093 132.212C39.4796 131.932 39.6334 131.535 39.6334 131.055V128.209C39.6287 128.129 39.5915 128.059 39.5402 128.013C39.4843 127.961 39.4051 127.929 39.3212 127.929H39.1348V127.859ZM43.8227 127.672C43.9765 127.695 44.1443 127.709 44.2841 127.714H46.7166C46.861 127.714 47.0241 127.695 47.1779 127.672C47.3457 127.649 47.4901 127.616 47.56 127.588L47.6532 127.551V128.624L47.4482 128.619V128.423C47.4482 128.325 47.4109 128.237 47.3457 128.171C47.2851 128.106 47.1966 128.064 47.1034 128.059H45.8032V132.31C45.8079 132.417 45.8498 132.511 45.9244 132.581C45.9943 132.651 46.0921 132.693 46.1993 132.693H46.3578L46.3624 132.898H44.6522L44.6569 132.693H44.8107C44.9178 132.693 45.0157 132.651 45.0809 132.581C45.1508 132.515 45.1974 132.422 45.2021 132.319V128.059H43.902C43.8041 128.064 43.7202 128.106 43.6596 128.171C43.5991 128.237 43.5571 128.325 43.5571 128.423V128.619L43.3521 128.624V127.551L43.4453 127.588C43.5105 127.616 43.655 127.649 43.8227 127.672ZM53.2779 127.859V127.719H55.0067V127.924H54.839C54.7131 127.924 54.592 127.966 54.4801 128.027C54.3543 128.101 54.2471 128.204 54.1679 128.316L52.7559 130.598V132.305C52.7559 132.413 52.8025 132.511 52.8724 132.581C52.9423 132.651 53.0402 132.693 53.152 132.693H53.3058L53.3105 132.898H51.6003L51.6049 132.693H51.7634C51.8705 132.693 51.9684 132.651 52.0383 132.581C52.1082 132.511 52.1548 132.413 52.1595 132.31V130.593L50.7987 128.311C50.7288 128.204 50.6263 128.101 50.5005 128.031C50.3887 127.966 50.2628 127.924 50.1324 127.924H49.9693V127.719H51.8752V127.924H51.7168C51.6841 127.924 51.6515 127.933 51.6236 127.947C51.5863 127.966 51.5537 127.999 51.5304 128.036C51.5071 128.073 51.4931 128.115 51.4931 128.162C51.4931 128.199 51.5024 128.237 51.521 128.274L52.5416 130.187L53.632 128.269C53.6507 128.232 53.66 128.199 53.66 128.167C53.66 128.125 53.646 128.083 53.6227 128.045C53.5994 128.008 53.5668 127.975 53.5295 127.952C53.5015 127.938 53.4689 127.929 53.4316 127.929H53.2732V127.859H53.2779ZM60.128 129.067C60.17 129.165 60.2352 129.258 60.3284 129.347L61.7451 130.658C61.8988 130.798 61.992 130.957 62.0526 131.115C62.1085 131.274 62.1318 131.433 62.1318 131.587C62.1318 132.007 61.9921 132.366 61.7404 132.613C61.4934 132.861 61.1439 133 60.7152 133C60.5102 133 60.2306 132.968 59.9696 132.884C59.7692 132.819 59.5782 132.721 59.4477 132.585L59.4384 132.571L59.4337 132.553C59.4058 132.431 59.3964 132.245 59.4151 132.049C59.4291 131.867 59.4663 131.671 59.5176 131.512L59.5316 131.465H59.718L59.7133 131.54C59.704 131.615 59.704 131.689 59.7087 131.759C59.7226 132.016 59.8112 132.226 59.951 132.38C60.0908 132.529 60.2865 132.627 60.5102 132.646C60.5661 132.651 60.622 132.655 60.6779 132.651C60.9342 132.637 61.1672 132.539 61.3303 132.375C61.4841 132.226 61.5773 132.011 61.5773 131.755C61.5773 131.624 61.554 131.512 61.5121 131.409C61.4655 131.302 61.4002 131.213 61.3163 131.134L59.937 129.851C59.7972 129.725 59.6993 129.576 59.6341 129.426C59.5549 129.249 59.5269 129.067 59.5269 128.909C59.5269 128.568 59.6621 128.227 59.9137 127.98C60.1374 127.765 60.4543 127.621 60.8597 127.621C60.9529 127.621 61.0554 127.63 61.1626 127.639C61.2744 127.653 61.3862 127.672 61.4841 127.695H61.8336V128.713H61.6286V128.643C61.6286 128.437 61.5447 128.269 61.4142 128.153C61.2837 128.036 61.0973 127.971 60.8923 127.971H60.8876C60.6453 127.971 60.4496 128.055 60.3051 128.19C60.156 128.33 60.0675 128.526 60.0675 128.736C60.0581 128.829 60.0768 128.951 60.128 129.067ZM67.3743 127.616H67.4815L69.4247 132.282C69.4853 132.417 69.5739 132.515 69.6624 132.581C69.7696 132.655 69.8907 132.693 69.9933 132.693H70.1191V132.898H68.3669V132.693H68.4974C68.5254 132.693 68.558 132.688 68.5859 132.679C68.6279 132.665 68.6652 132.637 68.6931 132.599C68.7211 132.562 68.7351 132.52 68.7351 132.459C68.7351 132.422 68.7257 132.375 68.7071 132.329L68.2644 131.143H66.4144L65.9484 132.333C65.9344 132.38 65.9251 132.427 65.9251 132.464C65.9251 132.52 65.9437 132.567 65.9717 132.604C65.9996 132.637 66.0369 132.665 66.0742 132.679C66.1022 132.688 66.1348 132.693 66.1627 132.693H66.2932V132.898H64.7088V132.693H64.8393C64.9465 132.693 65.063 132.655 65.1702 132.581C65.2634 132.515 65.3472 132.413 65.4125 132.277L67.0435 128.4C67.0435 128.4 67.3044 127.817 67.3044 127.681V127.616H67.3743ZM67.3604 128.736L66.5542 130.798H68.1339L67.3604 128.736ZM75.6458 132.296C75.8322 132.137 75.958 131.909 76.0652 131.643L76.0792 131.601H76.2889L75.8229 132.898H72.724L72.7287 132.693H72.8871C72.9943 132.693 73.0922 132.651 73.1621 132.581C73.2319 132.511 73.2785 132.413 73.2832 132.305V128.311C73.2832 128.204 73.2366 128.106 73.1667 128.036C73.0968 127.966 72.999 127.924 72.8918 127.924H72.7333L72.7287 127.719H74.4389L74.4342 127.924H74.2804C74.1733 127.924 74.0708 127.966 74.0009 128.036C73.931 128.106 73.8843 128.204 73.8843 128.311V132.543H74.849C75.2124 132.543 75.4641 132.45 75.6458 132.296ZM79.8165 128.363C80.2872 127.887 80.9489 127.616 81.7364 127.616C82.524 127.616 83.1857 127.887 83.6564 128.363C84.1224 128.834 84.3926 129.506 84.3926 130.308C84.3926 131.111 84.1224 131.783 83.6564 132.254C83.1857 132.73 82.524 133 81.7364 133C80.9489 133 80.2825 132.73 79.8165 132.254C79.3505 131.783 79.0802 131.115 79.0802 130.308C79.0849 129.506 79.3552 128.834 79.8165 128.363ZM80.3151 132.011C80.66 132.417 81.1493 132.651 81.7411 132.651C82.3329 132.651 82.8222 132.417 83.1671 132.011C83.5119 131.601 83.7123 131.013 83.7123 130.308C83.7123 129.604 83.5166 129.016 83.1671 128.605C82.8222 128.199 82.3329 127.966 81.7411 127.966C81.1493 127.966 80.66 128.199 80.3151 128.605C79.9703 129.011 79.7699 129.599 79.7699 130.308C79.7699 131.018 79.9656 131.601 80.3151 132.011ZM91.103 127.859V127.719H92.72L92.7154 127.924H92.5197C92.4171 127.924 92.3239 127.966 92.254 128.031C92.1888 128.097 92.1422 128.19 92.1375 128.288V132.011C92.1375 132.473 92.2028 132.921 92.2028 132.921L92.2121 132.996H92.0397L88.2092 128.904V132.324C88.2138 132.422 88.2558 132.515 88.3257 132.581C88.3909 132.646 88.4841 132.688 88.5913 132.688H88.787L88.7917 132.893H87.1747L87.1793 132.688H87.3797C87.4822 132.688 87.5754 132.646 87.6453 132.581C87.7106 132.515 87.7571 132.422 87.7571 132.319V128.573C87.7571 128.087 87.6919 127.681 87.6919 127.681L87.6779 127.602H87.855L91.6809 131.694V128.288C91.6809 128.185 91.6389 128.092 91.569 128.027C91.4991 127.961 91.4059 127.919 91.3034 127.919H91.1077L91.103 127.859Z" fill="#907972"/>
<path d="M95.9446 52.9944C99.1413 39.4635 95.6184 25.1673 86.4475 14.6972C71.7359 -2.09056 46.5766 -4.83408 28.6962 8.21163C15.7228 17.674 8.9285 33.8178 11.403 49.803C12.6891 58.1269 16.473 66.0728 22.1349 72.2971C28.2954 79.0625 39.0088 85.4034 48.1284 85.856C45.4023 85.3054 42.7274 84.4982 40.1598 83.4391C25.094 77.2475 14.6743 63.0447 13.0899 46.9522L13.1039 46.9615C12.7124 42.7762 12.9641 38.5116 13.9054 34.331C16.1002 24.5421 21.8134 15.7703 29.8985 9.86334C44.6986 -0.94743 64.9836 -0.504174 79.4389 10.8432C91.2147 20.0862 96.8952 34.8536 94.5466 49.5604C92.5567 62.0135 85.6133 72.367 75.9159 80.1963C85.9582 74.266 93.2557 64.3838 95.9446 52.9944ZM62.1596 40.7326C66.102 41.3905 70.1795 41.3158 74.257 40.5506C74.3921 40.5366 74.5319 40.5086 74.6717 40.4713H74.6763C77.039 40 79.4016 39.2955 81.7316 38.3623C79.9841 38.633 78.2506 38.8383 76.5357 38.9736C76.8665 36.5847 76.9458 34.2611 76.8153 31.8208C74.1032 31.5129 69.5783 32.0448 65.3517 33.0759C62.4998 33.7711 59.797 34.681 57.8957 35.7075C63.2034 34.7416 69.075 33.7385 74.3222 34.0464L74.7556 34.0744C74.7276 35.2409 74.653 36.3887 74.5459 37.5551C74.4993 38.0731 74.4433 38.591 74.3781 39.1042C70.1235 39.2955 66.0227 39.0296 62.1596 38.199V40.7326ZM48.1843 80.9662L48.2821 81.0595C37.7226 70.5987 38.9435 51.1981 47.9187 39.6035C54.2656 31.4009 64.6853 26.2218 77.2626 26.9217C70.2261 27.001 63.1801 29.1893 57.1501 33.5938C46.6185 41.2878 41.0964 54.4082 43.1049 67.3979C43.8458 72.1991 45.6073 76.8463 48.2122 80.9475L48.2775 81.0595C35.1037 73.8274 30.5555 53.9556 35.7188 39.5195C39.3722 29.3059 47.8022 20.8654 60.0207 17.6646C53.3196 19.9276 47.229 24.3181 42.7694 30.6124C34.9685 41.6098 33.5612 56.5078 39.307 68.9376C41.432 73.5335 44.4842 77.6534 48.1843 80.9662ZM61.6097 63.4413C60.8408 68.1724 61.0971 74.4107 64.3125 81.0595C62.6256 73.9581 62.6955 67.5239 64.1867 61.4443C70.1515 56.4098 74.4014 49.7703 76.0697 41.7171C75.3148 41.9177 74.5552 42.095 73.7956 42.2537C72.584 47.2601 70.1981 51.8933 66.8476 55.8406C65.7012 57.1937 62.5883 60.2918 59.5453 62.5128C57.5322 63.9872 55.5284 65.0836 54.0699 65.093C52.4715 65.0976 50.2533 63.7026 48.3707 62.2841C46.8469 61.1363 44.8897 59.6433 43.6128 58.2482C45.0714 61.0104 48.1423 64.5844 51.0502 66.2361C53.1658 67.3652 54.8993 67.4259 57.0383 66.2968C58.632 65.4289 60.1605 64.4771 61.6097 63.4413ZM54.0512 54.3942H53.972V54.3895C53.767 54.3709 53.5526 54.2962 53.3196 54.1702C53.0773 54.0349 52.7977 53.8343 52.4622 53.5777L50.7613 54.8374L51.6606 55.8033C52.0381 56.2139 52.2245 56.4238 52.7604 56.3912H55.3187C55.8593 56.4192 56.0457 56.2139 56.4232 55.8033L57.3225 54.8374L55.6216 53.5777C55.2861 53.839 55.0112 54.0349 54.7642 54.1702C54.5312 54.3009 54.3168 54.3755 54.1118 54.3895V54.3942H54.0512ZM54.0512 58.4908C53.6365 58.5048 53.2078 58.4908 52.793 58.4908C51.7678 58.4908 51.2878 58.4908 50.5329 57.637L47.7649 54.6601L51.3671 51.7767C51.7538 51.4687 52.1033 51.3287 52.4482 51.3381C52.793 51.3521 53.1332 51.5107 53.5013 51.7953L54.0419 52.2152L54.5825 51.7953C54.9506 51.5107 55.2908 51.3474 55.6356 51.3381C55.9804 51.3287 56.33 51.464 56.7167 51.7767L60.3236 54.6601L57.5555 57.637C56.8006 58.4861 56.316 58.4908 55.2954 58.4908H54.0512Z" fill="#907972"/>
</svg>
