<svg width="49" height="32" viewBox="0 0 49 32" fill="none" xmlns="http://www.w3.org/2000/svg">
<g clip-path="url(#clip0_3028_18581)">
<path d="M48.375 4.8229V7.12804H0.623047V4.8229C0.624599 3.71225 1.06005 2.64757 1.83387 1.86243C2.60769 1.07728 3.6567 0.635778 4.75077 0.634766H44.2473C45.3414 0.635778 46.3904 1.07728 47.1642 1.86243C47.938 2.64757 48.3735 3.71225 48.375 4.8229Z" fill="#E8E8E8"/>
<path d="M48.375 11.8809V27.176C48.3739 28.2869 47.9387 29.352 47.1648 30.1375C46.3909 30.923 45.3417 31.3648 44.2473 31.3658H4.75077C3.65641 31.3648 2.60715 30.923 1.83328 30.1375C1.05941 29.352 0.624156 28.2869 0.623047 27.176V11.8809H48.375Z" fill="#E8E8E8"/>
<path d="M44.2483 0H4.75174C3.49195 0.0014628 2.28416 0.510144 1.39334 1.41445C0.502532 2.31876 0.00144097 3.54484 0 4.82372V27.1763C0.00144097 28.4552 0.502532 29.6812 1.39334 30.5855C2.28416 31.4898 3.49195 31.9985 4.75174 32H44.2483C45.5081 31.9985 46.7158 31.4898 47.6067 30.5855C48.4975 29.6812 48.9986 28.4552 49 27.1763V4.82372C48.9986 3.54484 48.4975 2.31876 47.6067 1.41445C46.7158 0.510144 45.5081 0.0014628 44.2483 0ZM48.376 27.1763C48.3749 28.2872 47.9396 29.3523 47.1658 30.1378C46.3919 30.9233 45.3426 31.3651 44.2483 31.3661H4.75174C3.65738 31.3651 2.60812 30.9233 1.83425 30.1378C1.06038 29.3523 0.625127 28.2872 0.624018 27.1763V11.8812H48.376V27.1763ZM48.376 7.12887H0.624018V4.82372C0.62557 3.71308 1.06102 2.6484 1.83484 1.86326C2.60866 1.07811 3.65767 0.636608 4.75174 0.635596H44.2483C45.3426 0.636609 46.3919 1.07835 47.1658 1.86386C47.9396 2.64937 48.3749 3.71448 48.376 4.82542V7.12887Z" fill="#494949"/>
<path d="M26.6851 16H3.7456C3.57328 16 3.43359 16.1418 3.43359 16.3167V21.7029C3.43359 21.8779 3.57328 22.0197 3.7456 22.0197H26.6851C26.8574 22.0197 26.9971 21.8779 26.9971 21.7029V16.3167C26.9971 16.1418 26.8574 16 26.6851 16Z" fill="#F9F9F9"/>
<path d="M45.2547 16H34.019C33.8467 16 33.707 16.1418 33.707 16.3167V21.7029C33.707 21.8779 33.8467 22.0197 34.019 22.0197H45.2547C45.427 22.0197 45.5667 21.8779 45.5667 21.7029V16.3167C45.5667 16.1418 45.427 16 45.2547 16Z" fill="#F9F9F9"/>
<path d="M45.2542 22.3367H34.0185C33.8531 22.3366 33.6944 22.2698 33.5774 22.1511C33.4604 22.0323 33.3946 21.8712 33.3945 21.7033V16.3171C33.3946 16.1491 33.4604 15.988 33.5774 15.8693C33.6944 15.7505 33.8531 15.6837 34.0185 15.6836H45.2542C45.4197 15.6837 45.5784 15.7505 45.6955 15.8692C45.8125 15.988 45.8784 16.1491 45.8786 16.3171V21.7033C45.8784 21.8713 45.8125 22.0323 45.6955 22.1511C45.5784 22.2699 45.4197 22.3366 45.2542 22.3367ZM34.0185 16.3171V21.7033H45.2546V16.3171H34.0185Z" fill="#E80748"/>
<path d="M36.6469 19.6166C36.9772 19.6166 37.2449 19.3448 37.2449 19.0095C37.2449 18.6742 36.9772 18.4023 36.6469 18.4023C36.3166 18.4023 36.0488 18.6742 36.0488 19.0095C36.0488 19.3448 36.3166 19.6166 36.6469 19.6166Z" fill="#353535"/>
<path d="M39.6371 19.6166C39.9674 19.6166 40.2352 19.3448 40.2352 19.0095C40.2352 18.6742 39.9674 18.4023 39.6371 18.4023C39.3068 18.4023 39.0391 18.6742 39.0391 19.0095C39.0391 19.3448 39.3068 19.6166 39.6371 19.6166Z" fill="#353535"/>
<path d="M42.6273 19.6166C42.9576 19.6166 43.2254 19.3448 43.2254 19.0095C43.2254 18.6742 42.9576 18.4023 42.6273 18.4023C42.2971 18.4023 42.0293 18.6742 42.0293 19.0095C42.0293 19.3448 42.2971 19.6166 42.6273 19.6166Z" fill="#353535"/>
</g>
<defs>
<clipPath id="clip0_3028_18581">
<rect width="49" height="32" fill="white"/>
</clipPath>
</defs>
</svg>
