<svg width="41" height="32" viewBox="0 0 41 32" fill="none" xmlns="http://www.w3.org/2000/svg">
<g clip-path="url(#clip0_3028_18575)">
<path d="M40.188 31.5626V31.6452H40.264C40.2785 31.6455 40.2928 31.6417 40.3052 31.6341C40.3101 31.6304 40.3141 31.6256 40.3168 31.6201C40.3196 31.6146 40.321 31.6085 40.321 31.6023C40.3209 31.5964 40.3194 31.5906 40.3166 31.5854C40.3139 31.5801 40.31 31.5756 40.3052 31.5722C40.2928 31.5646 40.2785 31.5607 40.264 31.561H40.188V31.5626ZM40.2656 31.5039C40.2983 31.5025 40.3306 31.512 40.3574 31.5309C40.3679 31.5398 40.3762 31.551 40.3817 31.5637C40.3872 31.5764 40.3897 31.5901 40.3891 31.6039C40.3898 31.6157 40.388 31.6276 40.3836 31.6386C40.3792 31.6495 40.3724 31.6594 40.3638 31.6674C40.3431 31.6859 40.3169 31.6971 40.2893 31.6992L40.3922 31.8151H40.3131L40.2197 31.6992H40.188V31.8151H40.1231V31.4975L40.2656 31.5039ZM40.245 31.9231C40.2794 31.9235 40.3134 31.9165 40.3448 31.9025C40.3757 31.8898 40.4037 31.8709 40.4271 31.8469C40.4507 31.8232 40.4695 31.7952 40.4825 31.7643C40.4958 31.7321 40.5027 31.6976 40.5027 31.6627C40.5027 31.6278 40.4958 31.5933 40.4825 31.561C40.4695 31.5302 40.4507 31.5022 40.4271 31.4785C40.4037 31.4545 40.3757 31.4355 40.3448 31.4229C40.313 31.4101 40.2792 31.4037 40.245 31.4038C40.2098 31.4038 40.175 31.4103 40.1421 31.4229C40.1107 31.4355 40.0821 31.4544 40.0582 31.4785C40.0222 31.5158 39.9978 31.5629 39.988 31.6139C39.9782 31.665 39.9833 31.7178 40.0028 31.7659C40.0154 31.797 40.0343 31.8251 40.0582 31.8485C40.0821 31.8725 40.1107 31.8914 40.1421 31.9041C40.1746 31.918 40.2097 31.9251 40.245 31.9247V31.9231ZM40.245 31.3292C40.335 31.3291 40.4214 31.3645 40.4856 31.4276C40.5162 31.4583 40.5409 31.4944 40.5585 31.534C40.5757 31.5753 40.5846 31.6195 40.5846 31.6643C40.5846 31.709 40.5757 31.7533 40.5585 31.7945C40.5409 31.8342 40.5162 31.8702 40.4856 31.9009C40.4542 31.9308 40.4177 31.955 40.378 31.9724C40.3361 31.9909 40.2908 32.0001 40.245 31.9994C40.1988 32 40.1529 31.9908 40.1105 31.9724C40.0697 31.956 40.0326 31.9317 40.0012 31.9009C39.9709 31.8692 39.9467 31.832 39.93 31.7913C39.9127 31.7501 39.9039 31.7058 39.9039 31.6611C39.9039 31.6164 39.9127 31.5721 39.93 31.5309C39.947 31.4909 39.9717 31.4547 40.0028 31.4245C40.0336 31.3932 40.0701 31.3684 40.1105 31.3514C40.153 31.3335 40.1989 31.3249 40.245 31.326V31.3292ZM8.86535 30.1269C8.86535 29.5345 9.25162 29.047 9.88485 29.047C10.4912 29.047 10.898 29.5123 10.898 30.1269C10.898 30.7415 10.4912 31.2085 9.88485 31.2085C9.25162 31.2085 8.86535 30.7209 8.86535 30.1269ZM11.5882 30.1269V28.4387H10.8505V28.85C10.7255 28.6887 10.5639 28.5597 10.3791 28.4738C10.1943 28.3879 9.99177 28.3475 9.78829 28.3561C8.83844 28.3561 8.10548 29.0978 8.10548 30.1285C8.10548 31.1592 8.84477 31.9009 9.78829 31.9009C9.99203 31.9102 10.195 31.87 10.3799 31.7838C10.5649 31.6975 10.7263 31.5677 10.8505 31.4054V31.8151H11.5819V30.1269H11.5882ZM36.3079 30.1269C36.3079 29.5345 36.6942 29.047 37.3274 29.047C37.9337 29.047 38.3422 29.5123 38.3422 30.1269C38.3422 30.7415 37.9337 31.2085 37.3274 31.2085C36.6942 31.2085 36.3079 30.7209 36.3079 30.1269ZM39.0324 30.1269V27.084H38.2994V28.85C38.1746 28.6885 38.013 28.5594 37.8282 28.4734C37.6434 28.3875 37.4407 28.3473 37.2372 28.3561C36.2873 28.3561 35.5544 29.0978 35.5544 30.1285C35.5544 31.1592 36.2937 31.9009 37.2372 31.9009C37.4409 31.9102 37.6439 31.87 37.8288 31.7838C38.0138 31.6975 38.1752 31.5677 38.2994 31.4054V31.8151H39.0324V30.1269ZM20.6687 29.0152C21.1437 29.0152 21.4429 29.3122 21.5204 29.8331H19.7791C19.8566 29.3455 20.1527 29.0152 20.6735 29.0152H20.6687ZM20.6877 28.3577C19.7015 28.3577 19.0113 29.0771 19.0113 30.1301C19.0113 31.1831 19.73 31.9025 20.7368 31.9025C21.2392 31.9193 21.7302 31.7497 22.1157 31.426L21.7579 30.8813C21.4796 31.1054 21.1348 31.2301 20.778 31.2355C20.3031 31.2355 19.8772 31.0163 19.7727 30.408H22.2708C22.2708 30.3175 22.2851 30.2254 22.2851 30.1253C22.2851 29.074 21.6297 28.3529 20.6877 28.3529V28.3577ZM29.5197 30.1253C29.5197 29.5329 29.9076 29.0454 30.5408 29.0454C31.1455 29.0454 31.554 29.5123 31.554 30.1253C31.554 30.7384 31.1455 31.2069 30.5408 31.2069C29.9076 31.2069 29.5197 30.7193 29.5197 30.1253ZM32.2426 30.1253V28.4387H31.5033V28.85C31.3781 28.6885 31.2163 28.5594 31.0312 28.4734C30.8461 28.3875 30.6432 28.3473 30.4395 28.3561C29.4896 28.3561 28.7567 29.0978 28.7567 30.1285C28.7567 31.1592 29.4975 31.9009 30.4395 31.9009C30.6434 31.9098 30.8465 31.8695 31.0316 31.7832C31.2167 31.697 31.3785 31.5674 31.5033 31.4054V31.8151H32.2347V30.1269L32.2426 30.1253ZM25.3879 30.1253C25.3879 31.1497 26.0987 31.8977 27.1831 31.8977C27.6221 31.92 28.0535 31.7767 28.3926 31.4959L28.0411 30.9019C27.7878 31.0966 27.4784 31.2036 27.1593 31.2069C26.5752 31.1989 26.1462 30.7765 26.1462 30.1253C26.1462 29.4742 26.5752 29.0533 27.1593 29.0454C27.4781 29.0491 27.7872 29.1555 28.0411 29.3487L28.3926 28.7563C28.0537 28.4752 27.6223 28.3313 27.1831 28.3529C26.0987 28.3529 25.3879 29.1025 25.3879 30.1253ZM34.8198 28.3529C34.6413 28.3477 34.4646 28.391 34.3085 28.4782C34.1525 28.5654 34.0228 28.6934 33.9333 28.8484V28.4387H33.1972V31.8136H33.9286V29.922C33.9286 29.363 34.1676 29.0533 34.6457 29.0533C34.8022 29.0508 34.9577 29.0794 35.1032 29.1375L35.3296 28.4466C35.1624 28.3865 34.9863 28.3554 34.8088 28.3545L34.8198 28.3529ZM15.1976 28.7071C14.7831 28.4605 14.3068 28.3381 13.8251 28.3545C12.9734 28.3545 12.4241 28.7643 12.4241 29.4345C12.4241 29.9856 12.8325 30.3239 13.5861 30.4303L13.9312 30.4795C14.3317 30.5367 14.5217 30.6383 14.5217 30.8321C14.5217 31.0941 14.2557 31.2418 13.7539 31.2418C13.3524 31.2537 12.9587 31.1295 12.6362 30.8892L12.2911 31.4626C12.7183 31.7604 13.2291 31.9134 13.7491 31.8993C14.7196 31.8993 15.2831 31.4403 15.2831 30.7987C15.2831 30.2047 14.8399 29.895 14.1085 29.7886L13.7729 29.7378C13.4563 29.6981 13.2014 29.633 13.2014 29.4075C13.2014 29.182 13.442 29.012 13.8346 29.012C14.2022 29.0181 14.5622 29.1176 14.881 29.3011L15.1976 28.7087V28.7071ZM24.6375 28.3545C24.4589 28.3491 24.2822 28.3923 24.1261 28.4796C23.97 28.5668 23.8404 28.6948 23.751 28.85V28.4387H23.0259V31.8136H23.7573V29.922C23.7573 29.363 23.9964 29.0533 24.4745 29.0533C24.631 29.0509 24.7865 29.0795 24.932 29.1375L25.1583 28.4466C24.9906 28.3867 24.814 28.3555 24.6359 28.3545H24.6375ZM18.3939 28.4387H17.1971V27.4143H16.4641V28.4387H15.777V29.1105H16.4641V30.651C16.4641 31.434 16.7681 31.9009 17.6324 31.9009C17.956 31.9025 18.2734 31.8116 18.5474 31.6389L18.3369 31.0036C18.1406 31.121 17.9178 31.1866 17.6894 31.1942C17.3237 31.1942 17.2034 30.9671 17.2034 30.6288V29.1041H18.4002L18.3939 28.4387ZM7.458 31.8151V29.6981C7.458 28.904 6.95142 28.3641 6.13455 28.3561C5.90198 28.3412 5.66967 28.389 5.46173 28.4946C5.25379 28.6002 5.07779 28.7596 4.952 28.9564C4.83797 28.7658 4.67492 28.6095 4.47995 28.5039C4.28497 28.3983 4.06526 28.3472 3.84385 28.3561C3.64889 28.3442 3.45426 28.3842 3.27967 28.4721C3.10508 28.5599 2.95674 28.6925 2.84968 28.8564V28.4387H2.12305V31.8136H2.86076V29.9427C2.86076 29.3567 3.18529 29.0454 3.68554 29.0454C4.18579 29.0454 4.41692 29.363 4.41692 29.9348V31.8136H5.15621V29.9427C5.15621 29.3567 5.49341 29.0454 5.97941 29.0454C6.46542 29.0454 6.71712 29.363 6.71712 29.9348V31.8136L7.458 31.8151Z" fill="#231F20"/>
<path d="M40.6046 20.5896V20.0957H40.4763L40.3291 20.434L40.1819 20.0957H40.0521V20.5896H40.1423V20.218L40.2816 20.5356H40.375L40.5143 20.218V20.5912H40.603L40.6046 20.5896ZM39.7925 20.5896V20.1799H39.9508V20.0973H39.5312V20.1799H39.6896V20.5896H39.7798H39.7925Z" fill="#F79410"/>
<path d="M26.0424 22.7102H14.9609V2.7168H26.0424V22.7102Z" fill="#FF5F00"/>
<path d="M15.6603 12.7054C15.6588 10.7804 16.0937 8.88027 16.9321 7.14878C17.7705 5.41728 18.9905 3.89976 20.4997 2.71101C18.631 1.23952 16.3874 0.324978 14.0252 0.0718648C11.6631 -0.181248 9.27757 0.23727 7.14121 1.27961C5.00486 2.32195 3.20382 3.94609 1.9438 5.96649C0.683793 7.9869 0.015625 10.3221 0.015625 12.7054C0.015625 15.0886 0.683793 17.4238 1.9438 19.4442C3.20382 21.4646 5.00486 23.0888 7.14121 24.1311C9.27757 25.1734 11.6631 25.592 14.0252 25.3388C16.3874 25.0857 18.631 24.1712 20.4997 22.6997C18.9905 21.5109 17.7705 19.9934 16.9321 18.2619C16.0937 16.5304 15.6588 14.6303 15.6603 12.7054Z" fill="#EB001B"/>
<path d="M41.0008 12.7055C41.0053 15.0926 40.3395 17.4327 39.0795 19.4577C37.8194 21.4827 36.0163 23.1106 33.8766 24.1549C31.7368 25.1992 29.3472 25.6176 26.9813 25.3622C24.6155 25.1068 22.3693 24.188 20.5 22.7109C22.008 21.5211 23.2271 20.0034 24.0654 18.2721C24.9037 16.5409 25.3392 14.6413 25.3392 12.7166C25.3392 10.7919 24.9037 8.8923 24.0654 7.16105C23.2271 5.42979 22.008 3.91205 20.5 2.72223C22.3678 1.24637 24.612 0.327777 26.9758 0.0715645C29.3397 -0.184648 31.7277 0.231866 33.8666 1.27345C36.0055 2.31504 37.8089 3.93962 39.0706 5.96133C40.3323 7.98304 41.0012 10.3202 41.0008 12.7055Z" fill="#F79E1B"/>
</g>
<defs>
<clipPath id="clip0_3028_18575">
<rect width="41" height="32" fill="white"/>
</clipPath>
</defs>
</svg>
