<svg width="148" height="50" viewBox="0 0 148 50" fill="none" xmlns="http://www.w3.org/2000/svg">
<g clip-path="url(#clip0_0_1)">
<path fill-rule="evenodd" clip-rule="evenodd" d="M74.0001 0.000115859C71.1768 -0.011525 68.4198 0.854313 66.1104 2.4778C63.8011 4.10129 62.0537 6.40215 61.1101 9.06195C60.1665 11.7217 60.0734 14.609 60.8436 17.324C61.6137 20.039 63.2092 22.4477 65.409 24.2165C60.5983 25.9827 56.4455 29.1816 53.5112 33.3816C50.5769 37.5815 49.0023 42.5803 49.0001 47.703C48.9972 48.0026 49.0542 48.2998 49.1676 48.5772C49.281 48.8546 49.4485 49.1066 49.6605 49.3185C49.8725 49.5304 50.1246 49.6979 50.4021 49.8113C50.6796 49.9246 50.977 49.9815 51.2767 49.9786C51.8788 49.973 52.4546 49.7315 52.8804 49.3059C53.3061 48.8804 53.5478 48.3048 53.5534 47.703C53.8898 42.5226 56.1859 37.6644 59.9753 34.1145C63.7648 30.5646 68.7636 28.5891 73.9571 28.5891C79.1506 28.5891 84.1495 30.5646 87.939 34.1145C91.7284 37.6644 94.0245 42.5226 94.3609 47.703C94.3609 48.3065 94.6008 48.8853 95.0277 49.3121C95.4547 49.7389 96.0338 49.9786 96.6376 49.9786C97.2414 49.9786 97.8204 49.7389 98.2474 49.3121C98.6743 48.8853 98.9142 48.3065 98.9142 47.703C98.9026 42.5766 97.3193 37.5769 94.3778 33.3775C91.4362 29.1782 87.2776 25.9809 82.4623 24.2165C84.6622 22.4477 86.2576 20.039 87.0278 17.324C87.798 14.609 87.7048 11.7217 86.7612 9.06195C85.8176 6.40215 84.0702 4.10129 81.7609 2.4778C79.4516 0.854313 76.6945 -0.011525 73.8712 0.000115859H74.0001ZM74.0001 4.55142C75.797 4.55142 77.5535 5.08402 79.0475 6.08187C80.5415 7.07972 81.706 8.49801 82.3936 10.1574C83.0812 11.8167 83.2611 13.6426 82.9106 15.4042C82.56 17.1658 81.6948 18.7839 80.4242 20.0539C79.1536 21.3239 77.5348 22.1888 75.7725 22.5392C74.0102 22.8896 72.1835 22.7098 70.5234 22.0225C68.8633 21.3351 67.4444 20.1712 66.4462 18.6778C65.4479 17.1844 64.9151 15.4287 64.9151 13.6326C64.9094 12.4384 65.1405 11.255 65.595 10.1507C66.0496 9.04631 66.7186 8.04295 67.5633 7.19855C68.4081 6.35416 69.4119 5.68546 70.5167 5.2311C71.6215 4.77675 72.8054 4.54574 74.0001 4.55142Z" fill="#CACACA"/>
</g>
<g clip-path="url(#clip1_0_1)">
<path fill-rule="evenodd" clip-rule="evenodd" d="M21.5 19C20.766 18.997 20.0491 19.2221 19.4487 19.6442C18.8483 20.0663 18.394 20.6646 18.1486 21.3561C17.9033 22.0477 17.8791 22.7983 18.0793 23.5042C18.2796 24.2102 18.6944 24.8364 19.2664 25.2963C18.0156 25.7555 16.9358 26.5872 16.1729 27.6792C15.41 28.7712 15.0006 30.0709 15 31.4028C14.9993 31.4807 15.0141 31.558 15.0436 31.6301C15.073 31.7022 15.1166 31.7677 15.1717 31.8228C15.2268 31.8779 15.2924 31.9215 15.3646 31.9509C15.4367 31.9804 15.514 31.9952 15.592 31.9944C15.7485 31.993 15.8982 31.9302 16.0089 31.8195C16.1196 31.7089 16.1824 31.5592 16.1839 31.4028C16.2714 30.0559 16.8683 28.7927 17.8536 27.8698C18.8388 26.9468 20.1385 26.4332 21.4889 26.4332C22.8392 26.4332 24.1389 26.9468 25.1241 27.8698C26.1094 28.7927 26.7064 30.0559 26.7938 31.4028C26.7938 31.5597 26.8562 31.7102 26.9672 31.8212C27.0782 31.9321 27.2288 31.9944 27.3858 31.9944C27.5428 31.9944 27.6933 31.9321 27.8043 31.8212C27.9153 31.7102 27.9777 31.5597 27.9777 31.4028C27.9747 30.0699 27.563 28.77 26.7982 27.6782C26.0334 26.5863 24.9522 25.755 23.7002 25.2963C24.2722 24.8364 24.687 24.2102 24.8872 23.5042C25.0875 22.7983 25.0633 22.0477 24.8179 21.3561C24.5726 20.6646 24.1183 20.0663 23.5178 19.6442C22.9174 19.2221 22.2006 18.997 21.4665 19H21.5ZM21.5 20.1834C21.9672 20.1834 22.4239 20.3218 22.8123 20.5813C23.2008 20.8407 23.5036 21.2095 23.6823 21.6409C23.8611 22.0724 23.9079 22.5471 23.8168 23.0051C23.7256 23.4631 23.5006 23.8838 23.1703 24.214C22.8399 24.5442 22.4191 24.7691 21.9609 24.8602C21.5026 24.9513 21.0277 24.9045 20.5961 24.7258C20.1645 24.5471 19.7956 24.2445 19.536 23.8562C19.2764 23.4679 19.1379 23.0115 19.1379 22.5445C19.1364 22.234 19.1965 21.9263 19.3147 21.6392C19.4329 21.352 19.6068 21.0912 19.8265 20.8716C20.0461 20.6521 20.3071 20.4782 20.5943 20.3601C20.8816 20.242 21.1894 20.1819 21.5 20.1834Z" fill="#CACACA"/>
</g>
<g clip-path="url(#clip2_0_1)">
<path fill-rule="evenodd" clip-rule="evenodd" d="M126.5 19C125.766 18.997 125.049 19.2221 124.449 19.6442C123.848 20.0663 123.394 20.6646 123.149 21.3561C122.903 22.0477 122.879 22.7983 123.079 23.5042C123.28 24.2102 123.694 24.8364 124.266 25.2963C123.016 25.7555 121.936 26.5872 121.173 27.6792C120.41 28.7712 120.001 30.0709 120 31.4028C119.999 31.4807 120.014 31.558 120.044 31.6301C120.073 31.7022 120.117 31.7677 120.172 31.8228C120.227 31.8779 120.292 31.9215 120.365 31.9509C120.437 31.9804 120.514 31.9952 120.592 31.9944C120.748 31.993 120.898 31.9302 121.009 31.8195C121.12 31.7089 121.182 31.5592 121.184 31.4028C121.271 30.0559 121.868 28.7927 122.854 27.8698C123.839 26.9468 125.139 26.4332 126.489 26.4332C127.839 26.4332 129.139 26.9468 130.124 27.8698C131.109 28.7927 131.706 30.0559 131.794 31.4028C131.794 31.5597 131.856 31.7102 131.967 31.8212C132.078 31.9321 132.229 31.9944 132.386 31.9944C132.543 31.9944 132.693 31.9321 132.804 31.8212C132.915 31.7102 132.978 31.5597 132.978 31.4028C132.975 30.0699 132.563 28.77 131.798 27.6782C131.033 26.5863 129.952 25.755 128.7 25.2963C129.272 24.8364 129.687 24.2102 129.887 23.5042C130.087 22.7983 130.063 22.0477 129.818 21.3561C129.573 20.6646 129.118 20.0663 128.518 19.6442C127.917 19.2221 127.201 18.997 126.467 19H126.5ZM126.5 20.1834C126.967 20.1834 127.424 20.3218 127.812 20.5813C128.201 20.8407 128.504 21.2095 128.682 21.6409C128.861 22.0724 128.908 22.5471 128.817 23.0051C128.726 23.4631 128.501 23.8838 128.17 24.214C127.84 24.5442 127.419 24.7691 126.961 24.8602C126.503 24.9513 126.028 24.9045 125.596 24.7258C125.164 24.5471 124.796 24.2445 124.536 23.8562C124.276 23.4679 124.138 23.0115 124.138 22.5445C124.136 22.234 124.197 21.9263 124.315 21.6392C124.433 21.352 124.607 21.0912 124.826 20.8716C125.046 20.6521 125.307 20.4782 125.594 20.3601C125.882 20.242 126.189 20.1819 126.5 20.1834Z" fill="#CACACA"/>
</g>
<g clip-path="url(#clip3_0_1)">
<path fill-rule="evenodd" clip-rule="evenodd" d="M6.50003 19C5.76598 18.997 5.04914 19.2221 4.44871 19.6442C3.84829 20.0663 3.39397 20.6646 3.14863 21.3561C2.9033 22.0477 2.87908 22.7983 3.07932 23.5042C3.27957 24.2102 3.69438 24.8364 4.26635 25.2963C3.01556 25.7555 1.93584 26.5872 1.17291 27.6792C0.409992 28.7712 0.000609643 30.0709 2.68505e-05 31.4028C-0.000719039 31.4807 0.0140822 31.558 0.0435651 31.6301C0.0730479 31.7022 0.116621 31.7677 0.171735 31.8228C0.22685 31.8779 0.2924 31.9215 0.364552 31.9509C0.436705 31.9804 0.514011 31.9952 0.591951 31.9944C0.748488 31.993 0.898202 31.9302 1.0089 31.8195C1.11959 31.7089 1.18242 31.5592 1.18388 31.4028C1.27136 30.0559 1.86832 28.7927 2.85358 27.8698C3.83884 26.9468 5.13855 26.4332 6.48886 26.4332C7.83917 26.4332 9.13888 26.9468 10.1241 27.8698C11.1094 28.7927 11.7064 30.0559 11.7938 31.4028C11.7938 31.5597 11.8562 31.7102 11.9672 31.8212C12.0782 31.9321 12.2288 31.9944 12.3858 31.9944C12.5428 31.9944 12.6933 31.9321 12.8043 31.8212C12.9153 31.7102 12.9777 31.5597 12.9777 31.4028C12.9747 30.0699 12.563 28.77 11.7982 27.6782C11.0334 26.5863 9.95218 25.755 8.7002 25.2963C9.27217 24.8364 9.68698 24.2102 9.88723 23.5042C10.0875 22.7983 10.0633 22.0477 9.81792 21.3561C9.57258 20.6646 9.11826 20.0663 8.51784 19.6442C7.91741 19.2221 7.20057 18.997 6.46652 19H6.50003ZM6.50003 20.1834C6.96721 20.1834 7.4239 20.3218 7.81235 20.5813C8.2008 20.8407 8.50355 21.2095 8.68234 21.6409C8.86112 22.0724 8.9079 22.5471 8.81675 23.0051C8.72561 23.4631 8.50064 23.8838 8.17029 24.214C7.83995 24.5442 7.41906 24.7691 6.96085 24.8602C6.50265 24.9513 6.02771 24.9045 5.59609 24.7258C5.16447 24.5471 4.79555 24.2445 4.536 23.8562C4.27645 23.4679 4.13791 23.0115 4.13791 22.5445C4.13644 22.234 4.19652 21.9263 4.31471 21.6392C4.43289 21.352 4.60683 21.0912 4.82646 20.8716C5.0461 20.6521 5.30709 20.4782 5.59434 20.3601C5.88159 20.242 6.18942 20.1819 6.50003 20.1834Z" fill="#CACACA"/>
</g>
<g clip-path="url(#clip4_0_1)">
<path fill-rule="evenodd" clip-rule="evenodd" d="M111.5 19C110.766 18.997 110.049 19.2221 109.449 19.6442C108.848 20.0663 108.394 20.6646 108.149 21.3561C107.903 22.0477 107.879 22.7983 108.079 23.5042C108.28 24.2102 108.694 24.8364 109.266 25.2963C108.016 25.7555 106.936 26.5872 106.173 27.6792C105.41 28.7712 105.001 30.0709 105 31.4028C104.999 31.4807 105.014 31.558 105.044 31.6301C105.073 31.7022 105.117 31.7677 105.172 31.8228C105.227 31.8779 105.292 31.9215 105.365 31.9509C105.437 31.9804 105.514 31.9952 105.592 31.9944C105.748 31.993 105.898 31.9302 106.009 31.8195C106.12 31.7089 106.182 31.5592 106.184 31.4028C106.271 30.0559 106.868 28.7927 107.854 27.8698C108.839 26.9468 110.139 26.4332 111.489 26.4332C112.839 26.4332 114.139 26.9468 115.124 27.8698C116.109 28.7927 116.706 30.0559 116.794 31.4028C116.794 31.5597 116.856 31.7102 116.967 31.8212C117.078 31.9321 117.229 31.9944 117.386 31.9944C117.543 31.9944 117.693 31.9321 117.804 31.8212C117.915 31.7102 117.978 31.5597 117.978 31.4028C117.975 30.0699 117.563 28.77 116.798 27.6782C116.033 26.5863 114.952 25.755 113.7 25.2963C114.272 24.8364 114.687 24.2102 114.887 23.5042C115.087 22.7983 115.063 22.0477 114.818 21.3561C114.573 20.6646 114.118 20.0663 113.518 19.6442C112.917 19.2221 112.201 18.997 111.467 19H111.5ZM111.5 20.1834C111.967 20.1834 112.424 20.3218 112.812 20.5813C113.201 20.8407 113.504 21.2095 113.682 21.6409C113.861 22.0724 113.908 22.5471 113.817 23.0051C113.726 23.4631 113.501 23.8838 113.17 24.214C112.84 24.5442 112.419 24.7691 111.961 24.8602C111.503 24.9513 111.028 24.9045 110.596 24.7258C110.164 24.5471 109.796 24.2445 109.536 23.8562C109.276 23.4679 109.138 23.0115 109.138 22.5445C109.136 22.234 109.197 21.9263 109.315 21.6392C109.433 21.352 109.607 21.0912 109.826 20.8716C110.046 20.6521 110.307 20.4782 110.594 20.3601C110.882 20.242 111.189 20.1819 111.5 20.1834Z" fill="#CACACA"/>
</g>
<g clip-path="url(#clip5_0_1)">
<path fill-rule="evenodd" clip-rule="evenodd" d="M21.5 1.00003C20.766 0.997003 20.0491 1.22212 19.4487 1.64423C18.8483 2.06634 18.394 2.66456 18.1486 3.35611C17.9033 4.04765 17.8791 4.79833 18.0793 5.50424C18.2796 6.21015 18.6944 6.83639 19.2664 7.29629C18.0156 7.7555 16.9358 8.58722 16.1729 9.67921C15.41 10.7712 15.0006 12.0709 15 13.4028C14.9993 13.4807 15.0141 13.558 15.0436 13.6301C15.073 13.7022 15.1166 13.7677 15.1717 13.8228C15.2268 13.8779 15.2924 13.9215 15.3646 13.9509C15.4367 13.9804 15.514 13.9952 15.592 13.9944C15.7485 13.993 15.8982 13.9302 16.0089 13.8195C16.1196 13.7089 16.1824 13.5592 16.1839 13.4028C16.2714 12.0559 16.8683 10.7927 17.8536 9.86977C18.8388 8.9468 20.1385 8.43318 21.4889 8.43318C22.8392 8.43318 24.1389 8.9468 25.1241 9.86977C26.1094 10.7927 26.7064 12.0559 26.7938 13.4028C26.7938 13.5597 26.8562 13.7102 26.9672 13.8212C27.0782 13.9321 27.2288 13.9944 27.3858 13.9944C27.5428 13.9944 27.6933 13.9321 27.8043 13.8212C27.9153 13.7102 27.9777 13.5597 27.9777 13.4028C27.9747 12.0699 27.563 10.77 26.7982 9.67816C26.0334 8.58632 24.9522 7.75504 23.7002 7.29629C24.2722 6.83639 24.687 6.21015 24.8872 5.50424C25.0875 4.79833 25.0633 4.04765 24.8179 3.35611C24.5726 2.66456 24.1183 2.06634 23.5178 1.64423C22.9174 1.22212 22.2006 0.997003 21.4665 1.00003H21.5ZM21.5 2.18337C21.9672 2.18337 22.4239 2.32185 22.8123 2.58129C23.2008 2.84073 23.5036 3.20948 23.6823 3.64092C23.8611 4.07235 23.9079 4.54709 23.8168 5.0051C23.7256 5.46311 23.5006 5.88381 23.1703 6.21402C22.8399 6.54423 22.4191 6.7691 21.9609 6.8602C21.5026 6.9513 21.0277 6.90455 20.5961 6.72584C20.1645 6.54714 19.7956 6.24451 19.536 5.85623C19.2764 5.46795 19.1379 5.01145 19.1379 4.54447C19.1364 4.23399 19.1965 3.9263 19.3147 3.63917C19.4329 3.35204 19.6068 3.09117 19.8265 2.87162C20.0461 2.65208 20.3071 2.47822 20.5943 2.36009C20.8816 2.24195 21.1894 2.18189 21.5 2.18337Z" fill="#CACACA"/>
</g>
<g clip-path="url(#clip6_0_1)">
<path fill-rule="evenodd" clip-rule="evenodd" d="M126.5 1.00003C125.766 0.997003 125.049 1.22212 124.449 1.64423C123.848 2.06634 123.394 2.66456 123.149 3.35611C122.903 4.04765 122.879 4.79833 123.079 5.50424C123.28 6.21015 123.694 6.83639 124.266 7.29629C123.016 7.7555 121.936 8.58722 121.173 9.67921C120.41 10.7712 120.001 12.0709 120 13.4028C119.999 13.4807 120.014 13.558 120.044 13.6301C120.073 13.7022 120.117 13.7677 120.172 13.8228C120.227 13.8779 120.292 13.9215 120.365 13.9509C120.437 13.9804 120.514 13.9952 120.592 13.9944C120.748 13.993 120.898 13.9302 121.009 13.8195C121.12 13.7089 121.182 13.5592 121.184 13.4028C121.271 12.0559 121.868 10.7927 122.854 9.86977C123.839 8.9468 125.139 8.43318 126.489 8.43318C127.839 8.43318 129.139 8.9468 130.124 9.86977C131.109 10.7927 131.706 12.0559 131.794 13.4028C131.794 13.5597 131.856 13.7102 131.967 13.8212C132.078 13.9321 132.229 13.9944 132.386 13.9944C132.543 13.9944 132.693 13.9321 132.804 13.8212C132.915 13.7102 132.978 13.5597 132.978 13.4028C132.975 12.0699 132.563 10.77 131.798 9.67816C131.033 8.58632 129.952 7.75504 128.7 7.29629C129.272 6.83639 129.687 6.21015 129.887 5.50424C130.087 4.79833 130.063 4.04765 129.818 3.35611C129.573 2.66456 129.118 2.06634 128.518 1.64423C127.917 1.22212 127.201 0.997003 126.467 1.00003H126.5ZM126.5 2.18337C126.967 2.18337 127.424 2.32185 127.812 2.58129C128.201 2.84073 128.504 3.20948 128.682 3.64092C128.861 4.07235 128.908 4.54709 128.817 5.0051C128.726 5.46311 128.501 5.88381 128.17 6.21402C127.84 6.54423 127.419 6.7691 126.961 6.8602C126.503 6.9513 126.028 6.90455 125.596 6.72584C125.164 6.54714 124.796 6.24451 124.536 5.85623C124.276 5.46795 124.138 5.01145 124.138 4.54447C124.136 4.23399 124.197 3.9263 124.315 3.63917C124.433 3.35204 124.607 3.09117 124.826 2.87162C125.046 2.65208 125.307 2.47822 125.594 2.36009C125.882 2.24195 126.189 2.18189 126.5 2.18337Z" fill="#CACACA"/>
</g>
<g clip-path="url(#clip7_0_1)">
<path fill-rule="evenodd" clip-rule="evenodd" d="M6.50003 1.00003C5.76598 0.997003 5.04914 1.22212 4.44871 1.64423C3.84829 2.06634 3.39397 2.66456 3.14863 3.35611C2.9033 4.04765 2.87908 4.79833 3.07932 5.50424C3.27957 6.21015 3.69438 6.83639 4.26635 7.29629C3.01556 7.7555 1.93584 8.58722 1.17291 9.67921C0.409992 10.7712 0.000609643 12.0709 2.68505e-05 13.4028C-0.000719039 13.4807 0.0140822 13.558 0.0435651 13.6301C0.0730479 13.7022 0.116621 13.7677 0.171735 13.8228C0.22685 13.8779 0.2924 13.9215 0.364552 13.9509C0.436705 13.9804 0.514011 13.9952 0.591951 13.9944C0.748488 13.993 0.898202 13.9302 1.0089 13.8195C1.11959 13.7089 1.18242 13.5592 1.18388 13.4028C1.27136 12.0559 1.86832 10.7927 2.85358 9.86977C3.83884 8.9468 5.13855 8.43318 6.48886 8.43318C7.83917 8.43318 9.13888 8.9468 10.1241 9.86977C11.1094 10.7927 11.7064 12.0559 11.7938 13.4028C11.7938 13.5597 11.8562 13.7102 11.9672 13.8212C12.0782 13.9321 12.2288 13.9944 12.3858 13.9944C12.5428 13.9944 12.6933 13.9321 12.8043 13.8212C12.9153 13.7102 12.9777 13.5597 12.9777 13.4028C12.9747 12.0699 12.563 10.77 11.7982 9.67816C11.0334 8.58632 9.95218 7.75504 8.7002 7.29629C9.27217 6.83639 9.68698 6.21015 9.88723 5.50424C10.0875 4.79833 10.0633 4.04765 9.81792 3.35611C9.57258 2.66456 9.11826 2.06634 8.51784 1.64423C7.91741 1.22212 7.20057 0.997003 6.46652 1.00003H6.50003ZM6.50003 2.18337C6.96721 2.18337 7.4239 2.32185 7.81235 2.58129C8.2008 2.84073 8.50355 3.20948 8.68234 3.64092C8.86112 4.07235 8.9079 4.54709 8.81675 5.0051C8.72561 5.46311 8.50064 5.88381 8.17029 6.21402C7.83995 6.54423 7.41906 6.7691 6.96085 6.8602C6.50265 6.9513 6.02771 6.90455 5.59609 6.72584C5.16447 6.54714 4.79555 6.24451 4.536 5.85623C4.27645 5.46795 4.13791 5.01145 4.13791 4.54447C4.13644 4.23399 4.19652 3.9263 4.31471 3.63917C4.43289 3.35204 4.60683 3.09117 4.82646 2.87162C5.0461 2.65208 5.30709 2.47822 5.59434 2.36009C5.88159 2.24195 6.18942 2.18189 6.50003 2.18337Z" fill="#CACACA"/>
</g>
<g clip-path="url(#clip8_0_1)">
<path fill-rule="evenodd" clip-rule="evenodd" d="M111.5 1.00003C110.766 0.997003 110.049 1.22212 109.449 1.64423C108.848 2.06634 108.394 2.66456 108.149 3.35611C107.903 4.04765 107.879 4.79833 108.079 5.50424C108.28 6.21015 108.694 6.83639 109.266 7.29629C108.016 7.7555 106.936 8.58722 106.173 9.67921C105.41 10.7712 105.001 12.0709 105 13.4028C104.999 13.4807 105.014 13.558 105.044 13.6301C105.073 13.7022 105.117 13.7677 105.172 13.8228C105.227 13.8779 105.292 13.9215 105.365 13.9509C105.437 13.9804 105.514 13.9952 105.592 13.9944C105.748 13.993 105.898 13.9302 106.009 13.8195C106.12 13.7089 106.182 13.5592 106.184 13.4028C106.271 12.0559 106.868 10.7927 107.854 9.86977C108.839 8.9468 110.139 8.43318 111.489 8.43318C112.839 8.43318 114.139 8.9468 115.124 9.86977C116.109 10.7927 116.706 12.0559 116.794 13.4028C116.794 13.5597 116.856 13.7102 116.967 13.8212C117.078 13.9321 117.229 13.9944 117.386 13.9944C117.543 13.9944 117.693 13.9321 117.804 13.8212C117.915 13.7102 117.978 13.5597 117.978 13.4028C117.975 12.0699 117.563 10.77 116.798 9.67816C116.033 8.58632 114.952 7.75504 113.7 7.29629C114.272 6.83639 114.687 6.21015 114.887 5.50424C115.087 4.79833 115.063 4.04765 114.818 3.35611C114.573 2.66456 114.118 2.06634 113.518 1.64423C112.917 1.22212 112.201 0.997003 111.467 1.00003H111.5ZM111.5 2.18337C111.967 2.18337 112.424 2.32185 112.812 2.58129C113.201 2.84073 113.504 3.20948 113.682 3.64092C113.861 4.07235 113.908 4.54709 113.817 5.0051C113.726 5.46311 113.501 5.88381 113.17 6.21402C112.84 6.54423 112.419 6.7691 111.961 6.8602C111.503 6.9513 111.028 6.90455 110.596 6.72584C110.164 6.54714 109.796 6.24451 109.536 5.85623C109.276 5.46795 109.138 5.01145 109.138 4.54447C109.136 4.23399 109.197 3.9263 109.315 3.63917C109.433 3.35204 109.607 3.09117 109.826 2.87162C110.046 2.65208 110.307 2.47822 110.594 2.36009C110.882 2.24195 111.189 2.18189 111.5 2.18337Z" fill="#CACACA"/>
</g>
<g clip-path="url(#clip9_0_1)">
<path fill-rule="evenodd" clip-rule="evenodd" d="M36.5 19C35.766 18.997 35.0491 19.2221 34.4487 19.6442C33.8483 20.0663 33.394 20.6646 33.1486 21.3561C32.9033 22.0477 32.8791 22.7983 33.0793 23.5042C33.2796 24.2102 33.6944 24.8364 34.2664 25.2963C33.0156 25.7555 31.9358 26.5872 31.1729 27.6792C30.41 28.7712 30.0006 30.0709 30 31.4028C29.9993 31.4807 30.0141 31.558 30.0436 31.6301C30.073 31.7022 30.1166 31.7677 30.1717 31.8228C30.2268 31.8779 30.2924 31.9215 30.3646 31.9509C30.4367 31.9804 30.514 31.9952 30.592 31.9944C30.7485 31.993 30.8982 31.9302 31.0089 31.8195C31.1196 31.7089 31.1824 31.5592 31.1839 31.4028C31.2714 30.0559 31.8683 28.7927 32.8536 27.8698C33.8388 26.9468 35.1385 26.4332 36.4889 26.4332C37.8392 26.4332 39.1389 26.9468 40.1241 27.8698C41.1094 28.7927 41.7064 30.0559 41.7938 31.4028C41.7938 31.5597 41.8562 31.7102 41.9672 31.8212C42.0782 31.9321 42.2288 31.9944 42.3858 31.9944C42.5428 31.9944 42.6933 31.9321 42.8043 31.8212C42.9153 31.7102 42.9777 31.5597 42.9777 31.4028C42.9747 30.0699 42.563 28.77 41.7982 27.6782C41.0334 26.5863 39.9522 25.755 38.7002 25.2963C39.2722 24.8364 39.687 24.2102 39.8872 23.5042C40.0875 22.7983 40.0633 22.0477 39.8179 21.3561C39.5726 20.6646 39.1183 20.0663 38.5178 19.6442C37.9174 19.2221 37.2006 18.997 36.4665 19H36.5ZM36.5 20.1834C36.9672 20.1834 37.4239 20.3218 37.8123 20.5813C38.2008 20.8407 38.5036 21.2095 38.6823 21.6409C38.8611 22.0724 38.9079 22.5471 38.8168 23.0051C38.7256 23.4631 38.5006 23.8838 38.1703 24.214C37.8399 24.5442 37.4191 24.7691 36.9609 24.8602C36.5026 24.9513 36.0277 24.9045 35.5961 24.7258C35.1645 24.5471 34.7956 24.2445 34.536 23.8562C34.2764 23.4679 34.1379 23.0115 34.1379 22.5445C34.1364 22.234 34.1965 21.9263 34.3147 21.6392C34.4329 21.352 34.6068 21.0912 34.8265 20.8716C35.0461 20.6521 35.3071 20.4782 35.5943 20.3601C35.8816 20.242 36.1894 20.1819 36.5 20.1834Z" fill="#CACACA"/>
</g>
<g clip-path="url(#clip10_0_1)">
<path fill-rule="evenodd" clip-rule="evenodd" d="M141.5 19C140.766 18.997 140.049 19.2221 139.449 19.6442C138.848 20.0663 138.394 20.6646 138.149 21.3561C137.903 22.0477 137.879 22.7983 138.079 23.5042C138.28 24.2102 138.694 24.8364 139.266 25.2963C138.016 25.7555 136.936 26.5872 136.173 27.6792C135.41 28.7712 135.001 30.0709 135 31.4028C134.999 31.4807 135.014 31.558 135.044 31.6301C135.073 31.7022 135.117 31.7677 135.172 31.8228C135.227 31.8779 135.292 31.9215 135.365 31.9509C135.437 31.9804 135.514 31.9952 135.592 31.9944C135.748 31.993 135.898 31.9302 136.009 31.8195C136.12 31.7089 136.182 31.5592 136.184 31.4028C136.271 30.0559 136.868 28.7927 137.854 27.8698C138.839 26.9468 140.139 26.4332 141.489 26.4332C142.839 26.4332 144.139 26.9468 145.124 27.8698C146.109 28.7927 146.706 30.0559 146.794 31.4028C146.794 31.5597 146.856 31.7102 146.967 31.8212C147.078 31.9321 147.229 31.9944 147.386 31.9944C147.543 31.9944 147.693 31.9321 147.804 31.8212C147.915 31.7102 147.978 31.5597 147.978 31.4028C147.975 30.0699 147.563 28.77 146.798 27.6782C146.033 26.5863 144.952 25.755 143.7 25.2963C144.272 24.8364 144.687 24.2102 144.887 23.5042C145.087 22.7983 145.063 22.0477 144.818 21.3561C144.573 20.6646 144.118 20.0663 143.518 19.6442C142.917 19.2221 142.201 18.997 141.467 19H141.5ZM141.5 20.1834C141.967 20.1834 142.424 20.3218 142.812 20.5813C143.201 20.8407 143.504 21.2095 143.682 21.6409C143.861 22.0724 143.908 22.5471 143.817 23.0051C143.726 23.4631 143.501 23.8838 143.17 24.214C142.84 24.5442 142.419 24.7691 141.961 24.8602C141.503 24.9513 141.028 24.9045 140.596 24.7258C140.164 24.5471 139.796 24.2445 139.536 23.8562C139.276 23.4679 139.138 23.0115 139.138 22.5445C139.136 22.234 139.197 21.9263 139.315 21.6392C139.433 21.352 139.607 21.0912 139.826 20.8716C140.046 20.6521 140.307 20.4782 140.594 20.3601C140.882 20.242 141.189 20.1819 141.5 20.1834Z" fill="#CACACA"/>
</g>
<g clip-path="url(#clip11_0_1)">
<path fill-rule="evenodd" clip-rule="evenodd" d="M36.5 1.00003C35.766 0.997003 35.0491 1.22212 34.4487 1.64423C33.8483 2.06634 33.394 2.66456 33.1486 3.35611C32.9033 4.04765 32.8791 4.79833 33.0793 5.50424C33.2796 6.21015 33.6944 6.83639 34.2664 7.29629C33.0156 7.7555 31.9358 8.58722 31.1729 9.67921C30.41 10.7712 30.0006 12.0709 30 13.4028C29.9993 13.4807 30.0141 13.558 30.0436 13.6301C30.073 13.7022 30.1166 13.7677 30.1717 13.8228C30.2268 13.8779 30.2924 13.9215 30.3646 13.9509C30.4367 13.9804 30.514 13.9952 30.592 13.9944C30.7485 13.993 30.8982 13.9302 31.0089 13.8195C31.1196 13.7089 31.1824 13.5592 31.1839 13.4028C31.2714 12.0559 31.8683 10.7927 32.8536 9.86977C33.8388 8.9468 35.1385 8.43318 36.4889 8.43318C37.8392 8.43318 39.1389 8.9468 40.1241 9.86977C41.1094 10.7927 41.7064 12.0559 41.7938 13.4028C41.7938 13.5597 41.8562 13.7102 41.9672 13.8212C42.0782 13.9321 42.2288 13.9944 42.3858 13.9944C42.5428 13.9944 42.6933 13.9321 42.8043 13.8212C42.9153 13.7102 42.9777 13.5597 42.9777 13.4028C42.9747 12.0699 42.563 10.77 41.7982 9.67816C41.0334 8.58632 39.9522 7.75504 38.7002 7.29629C39.2722 6.83639 39.687 6.21015 39.8872 5.50424C40.0875 4.79833 40.0633 4.04765 39.8179 3.35611C39.5726 2.66456 39.1183 2.06634 38.5178 1.64423C37.9174 1.22212 37.2006 0.997003 36.4665 1.00003H36.5ZM36.5 2.18337C36.9672 2.18337 37.4239 2.32185 37.8123 2.58129C38.2008 2.84073 38.5036 3.20948 38.6823 3.64092C38.8611 4.07235 38.9079 4.54709 38.8168 5.0051C38.7256 5.46311 38.5006 5.88381 38.1703 6.21402C37.8399 6.54423 37.4191 6.7691 36.9609 6.8602C36.5026 6.9513 36.0277 6.90455 35.5961 6.72584C35.1645 6.54714 34.7956 6.24451 34.536 5.85623C34.2764 5.46795 34.1379 5.01145 34.1379 4.54447C34.1364 4.23399 34.1965 3.9263 34.3147 3.63917C34.4329 3.35204 34.6068 3.09117 34.8265 2.87162C35.0461 2.65208 35.3071 2.47822 35.5943 2.36009C35.8816 2.24195 36.1894 2.18189 36.5 2.18337Z" fill="#CACACA"/>
</g>
<g clip-path="url(#clip12_0_1)">
<path fill-rule="evenodd" clip-rule="evenodd" d="M141.5 1.00003C140.766 0.997003 140.049 1.22212 139.449 1.64423C138.848 2.06634 138.394 2.66456 138.149 3.35611C137.903 4.04765 137.879 4.79833 138.079 5.50424C138.28 6.21015 138.694 6.83639 139.266 7.29629C138.016 7.7555 136.936 8.58722 136.173 9.67921C135.41 10.7712 135.001 12.0709 135 13.4028C134.999 13.4807 135.014 13.558 135.044 13.6301C135.073 13.7022 135.117 13.7677 135.172 13.8228C135.227 13.8779 135.292 13.9215 135.365 13.9509C135.437 13.9804 135.514 13.9952 135.592 13.9944C135.748 13.993 135.898 13.9302 136.009 13.8195C136.12 13.7089 136.182 13.5592 136.184 13.4028C136.271 12.0559 136.868 10.7927 137.854 9.86977C138.839 8.9468 140.139 8.43318 141.489 8.43318C142.839 8.43318 144.139 8.9468 145.124 9.86977C146.109 10.7927 146.706 12.0559 146.794 13.4028C146.794 13.5597 146.856 13.7102 146.967 13.8212C147.078 13.9321 147.229 13.9944 147.386 13.9944C147.543 13.9944 147.693 13.9321 147.804 13.8212C147.915 13.7102 147.978 13.5597 147.978 13.4028C147.975 12.0699 147.563 10.77 146.798 9.67816C146.033 8.58632 144.952 7.75504 143.7 7.29629C144.272 6.83639 144.687 6.21015 144.887 5.50424C145.087 4.79833 145.063 4.04765 144.818 3.35611C144.573 2.66456 144.118 2.06634 143.518 1.64423C142.917 1.22212 142.201 0.997003 141.467 1.00003H141.5ZM141.5 2.18337C141.967 2.18337 142.424 2.32185 142.812 2.58129C143.201 2.84073 143.504 3.20948 143.682 3.64092C143.861 4.07235 143.908 4.54709 143.817 5.0051C143.726 5.46311 143.501 5.88381 143.17 6.21402C142.84 6.54423 142.419 6.7691 141.961 6.8602C141.503 6.9513 141.028 6.90455 140.596 6.72584C140.164 6.54714 139.796 6.24451 139.536 5.85623C139.276 5.46795 139.138 5.01145 139.138 4.54447C139.136 4.23399 139.197 3.9263 139.315 3.63917C139.433 3.35204 139.607 3.09117 139.826 2.87162C140.046 2.65208 140.307 2.47822 140.594 2.36009C140.882 2.24195 141.189 2.18189 141.5 2.18337Z" fill="#CACACA"/>
</g>
<g clip-path="url(#clip13_0_1)">
<path fill-rule="evenodd" clip-rule="evenodd" d="M36.5 37C35.766 36.997 35.0491 37.2221 34.4487 37.6442C33.8483 38.0663 33.394 38.6646 33.1486 39.3561C32.9033 40.0477 32.8791 40.7983 33.0793 41.5042C33.2796 42.2102 33.6944 42.8364 34.2664 43.2963C33.0156 43.7555 31.9358 44.5872 31.1729 45.6792C30.41 46.7712 30.0006 48.0709 30 49.4028C29.9993 49.4807 30.0141 49.558 30.0436 49.6301C30.073 49.7022 30.1166 49.7677 30.1717 49.8228C30.2268 49.8779 30.2924 49.9215 30.3646 49.9509C30.4367 49.9804 30.514 49.9952 30.592 49.9944C30.7485 49.993 30.8982 49.9302 31.0089 49.8195C31.1196 49.7089 31.1824 49.5592 31.1839 49.4028C31.2714 48.0559 31.8683 46.7927 32.8536 45.8698C33.8388 44.9468 35.1385 44.4332 36.4889 44.4332C37.8392 44.4332 39.1389 44.9468 40.1241 45.8698C41.1094 46.7927 41.7064 48.0559 41.7938 49.4028C41.7938 49.5597 41.8562 49.7102 41.9672 49.8212C42.0782 49.9321 42.2288 49.9944 42.3858 49.9944C42.5428 49.9944 42.6933 49.9321 42.8043 49.8212C42.9153 49.7102 42.9777 49.5597 42.9777 49.4028C42.9747 48.0699 42.563 46.77 41.7982 45.6782C41.0334 44.5863 39.9522 43.755 38.7002 43.2963C39.2722 42.8364 39.687 42.2102 39.8872 41.5042C40.0875 40.7983 40.0633 40.0477 39.8179 39.3561C39.5726 38.6646 39.1183 38.0663 38.5178 37.6442C37.9174 37.2221 37.2006 36.997 36.4665 37H36.5ZM36.5 38.1834C36.9672 38.1834 37.4239 38.3218 37.8123 38.5813C38.2008 38.8407 38.5036 39.2095 38.6823 39.6409C38.8611 40.0724 38.9079 40.5471 38.8168 41.0051C38.7256 41.4631 38.5006 41.8838 38.1703 42.214C37.8399 42.5442 37.4191 42.7691 36.9609 42.8602C36.5026 42.9513 36.0277 42.9045 35.5961 42.7258C35.1645 42.5471 34.7956 42.2445 34.536 41.8562C34.2764 41.4679 34.1379 41.0115 34.1379 40.5445C34.1364 40.234 34.1965 39.9263 34.3147 39.6392C34.4329 39.352 34.6068 39.0912 34.8265 38.8716C35.0461 38.6521 35.3071 38.4782 35.5943 38.3601C35.8816 38.242 36.1894 38.1819 36.5 38.1834Z" fill="#CACACA"/>
</g>
<g clip-path="url(#clip14_0_1)">
<path fill-rule="evenodd" clip-rule="evenodd" d="M141.5 37C140.766 36.997 140.049 37.2221 139.449 37.6442C138.848 38.0663 138.394 38.6646 138.149 39.3561C137.903 40.0477 137.879 40.7983 138.079 41.5042C138.28 42.2102 138.694 42.8364 139.266 43.2963C138.016 43.7555 136.936 44.5872 136.173 45.6792C135.41 46.7712 135.001 48.0709 135 49.4028C134.999 49.4807 135.014 49.558 135.044 49.6301C135.073 49.7022 135.117 49.7677 135.172 49.8228C135.227 49.8779 135.292 49.9215 135.365 49.9509C135.437 49.9804 135.514 49.9952 135.592 49.9944C135.748 49.993 135.898 49.9302 136.009 49.8195C136.12 49.7089 136.182 49.5592 136.184 49.4028C136.271 48.0559 136.868 46.7927 137.854 45.8698C138.839 44.9468 140.139 44.4332 141.489 44.4332C142.839 44.4332 144.139 44.9468 145.124 45.8698C146.109 46.7927 146.706 48.0559 146.794 49.4028C146.794 49.5597 146.856 49.7102 146.967 49.8212C147.078 49.9321 147.229 49.9944 147.386 49.9944C147.543 49.9944 147.693 49.9321 147.804 49.8212C147.915 49.7102 147.978 49.5597 147.978 49.4028C147.975 48.0699 147.563 46.77 146.798 45.6782C146.033 44.5863 144.952 43.755 143.7 43.2963C144.272 42.8364 144.687 42.2102 144.887 41.5042C145.087 40.7983 145.063 40.0477 144.818 39.3561C144.573 38.6646 144.118 38.0663 143.518 37.6442C142.917 37.2221 142.201 36.997 141.467 37H141.5ZM141.5 38.1834C141.967 38.1834 142.424 38.3218 142.812 38.5813C143.201 38.8407 143.504 39.2095 143.682 39.6409C143.861 40.0724 143.908 40.5471 143.817 41.0051C143.726 41.4631 143.501 41.8838 143.17 42.214C142.84 42.5442 142.419 42.7691 141.961 42.8602C141.503 42.9513 141.028 42.9045 140.596 42.7258C140.164 42.5471 139.796 42.2445 139.536 41.8562C139.276 41.4679 139.138 41.0115 139.138 40.5445C139.136 40.234 139.197 39.9263 139.315 39.6392C139.433 39.352 139.607 39.0912 139.826 38.8716C140.046 38.6521 140.307 38.4782 140.594 38.3601C140.882 38.242 141.189 38.1819 141.5 38.1834Z" fill="#CACACA"/>
</g>
<g clip-path="url(#clip15_0_1)">
<path fill-rule="evenodd" clip-rule="evenodd" d="M21.5 37C20.766 36.997 20.0491 37.2221 19.4487 37.6442C18.8483 38.0663 18.394 38.6646 18.1486 39.3561C17.9033 40.0477 17.8791 40.7983 18.0793 41.5042C18.2796 42.2102 18.6944 42.8364 19.2664 43.2963C18.0156 43.7555 16.9358 44.5872 16.1729 45.6792C15.41 46.7712 15.0006 48.0709 15 49.4028C14.9993 49.4807 15.0141 49.558 15.0436 49.6301C15.073 49.7022 15.1166 49.7677 15.1717 49.8228C15.2268 49.8779 15.2924 49.9215 15.3646 49.9509C15.4367 49.9804 15.514 49.9952 15.592 49.9944C15.7485 49.993 15.8982 49.9302 16.0089 49.8195C16.1196 49.7089 16.1824 49.5592 16.1839 49.4028C16.2714 48.0559 16.8683 46.7927 17.8536 45.8698C18.8388 44.9468 20.1385 44.4332 21.4889 44.4332C22.8392 44.4332 24.1389 44.9468 25.1241 45.8698C26.1094 46.7927 26.7064 48.0559 26.7938 49.4028C26.7938 49.5597 26.8562 49.7102 26.9672 49.8212C27.0782 49.9321 27.2288 49.9944 27.3858 49.9944C27.5428 49.9944 27.6933 49.9321 27.8043 49.8212C27.9153 49.7102 27.9777 49.5597 27.9777 49.4028C27.9747 48.0699 27.563 46.77 26.7982 45.6782C26.0334 44.5863 24.9522 43.755 23.7002 43.2963C24.2722 42.8364 24.687 42.2102 24.8872 41.5042C25.0875 40.7983 25.0633 40.0477 24.8179 39.3561C24.5726 38.6646 24.1183 38.0663 23.5178 37.6442C22.9174 37.2221 22.2006 36.997 21.4665 37H21.5ZM21.5 38.1834C21.9672 38.1834 22.4239 38.3218 22.8123 38.5813C23.2008 38.8407 23.5036 39.2095 23.6823 39.6409C23.8611 40.0724 23.9079 40.5471 23.8168 41.0051C23.7256 41.4631 23.5006 41.8838 23.1703 42.214C22.8399 42.5442 22.4191 42.7691 21.9609 42.8602C21.5026 42.9513 21.0277 42.9045 20.5961 42.7258C20.1645 42.5471 19.7956 42.2445 19.536 41.8562C19.2764 41.4679 19.1379 41.0115 19.1379 40.5445C19.1364 40.234 19.1965 39.9263 19.3147 39.6392C19.4329 39.352 19.6068 39.0912 19.8265 38.8716C20.0461 38.6521 20.3071 38.4782 20.5943 38.3601C20.8816 38.242 21.1894 38.1819 21.5 38.1834Z" fill="#CACACA"/>
</g>
<g clip-path="url(#clip16_0_1)">
<path fill-rule="evenodd" clip-rule="evenodd" d="M126.5 37C125.766 36.997 125.049 37.2221 124.449 37.6442C123.848 38.0663 123.394 38.6646 123.149 39.3561C122.903 40.0477 122.879 40.7983 123.079 41.5042C123.28 42.2102 123.694 42.8364 124.266 43.2963C123.016 43.7555 121.936 44.5872 121.173 45.6792C120.41 46.7712 120.001 48.0709 120 49.4028C119.999 49.4807 120.014 49.558 120.044 49.6301C120.073 49.7022 120.117 49.7677 120.172 49.8228C120.227 49.8779 120.292 49.9215 120.365 49.9509C120.437 49.9804 120.514 49.9952 120.592 49.9944C120.748 49.993 120.898 49.9302 121.009 49.8195C121.12 49.7089 121.182 49.5592 121.184 49.4028C121.271 48.0559 121.868 46.7927 122.854 45.8698C123.839 44.9468 125.139 44.4332 126.489 44.4332C127.839 44.4332 129.139 44.9468 130.124 45.8698C131.109 46.7927 131.706 48.0559 131.794 49.4028C131.794 49.5597 131.856 49.7102 131.967 49.8212C132.078 49.9321 132.229 49.9944 132.386 49.9944C132.543 49.9944 132.693 49.9321 132.804 49.8212C132.915 49.7102 132.978 49.5597 132.978 49.4028C132.975 48.0699 132.563 46.77 131.798 45.6782C131.033 44.5863 129.952 43.755 128.7 43.2963C129.272 42.8364 129.687 42.2102 129.887 41.5042C130.087 40.7983 130.063 40.0477 129.818 39.3561C129.573 38.6646 129.118 38.0663 128.518 37.6442C127.917 37.2221 127.201 36.997 126.467 37H126.5ZM126.5 38.1834C126.967 38.1834 127.424 38.3218 127.812 38.5813C128.201 38.8407 128.504 39.2095 128.682 39.6409C128.861 40.0724 128.908 40.5471 128.817 41.0051C128.726 41.4631 128.501 41.8838 128.17 42.214C127.84 42.5442 127.419 42.7691 126.961 42.8602C126.503 42.9513 126.028 42.9045 125.596 42.7258C125.164 42.5471 124.796 42.2445 124.536 41.8562C124.276 41.4679 124.138 41.0115 124.138 40.5445C124.136 40.234 124.197 39.9263 124.315 39.6392C124.433 39.352 124.607 39.0912 124.826 38.8716C125.046 38.6521 125.307 38.4782 125.594 38.3601C125.882 38.242 126.189 38.1819 126.5 38.1834Z" fill="#CACACA"/>
</g>
<g clip-path="url(#clip17_0_1)">
<path fill-rule="evenodd" clip-rule="evenodd" d="M6.50003 37C5.76598 36.997 5.04914 37.2221 4.44871 37.6442C3.84829 38.0663 3.39397 38.6646 3.14863 39.3561C2.9033 40.0477 2.87908 40.7983 3.07932 41.5042C3.27957 42.2102 3.69438 42.8364 4.26635 43.2963C3.01556 43.7555 1.93584 44.5872 1.17291 45.6792C0.409992 46.7712 0.000609643 48.0709 2.68505e-05 49.4028C-0.000719039 49.4807 0.0140822 49.558 0.0435651 49.6301C0.0730479 49.7022 0.116621 49.7677 0.171735 49.8228C0.22685 49.8779 0.2924 49.9215 0.364552 49.9509C0.436705 49.9804 0.514011 49.9952 0.591951 49.9944C0.748488 49.993 0.898202 49.9302 1.0089 49.8195C1.11959 49.7089 1.18242 49.5592 1.18388 49.4028C1.27136 48.0559 1.86832 46.7927 2.85358 45.8698C3.83884 44.9468 5.13855 44.4332 6.48886 44.4332C7.83917 44.4332 9.13888 44.9468 10.1241 45.8698C11.1094 46.7927 11.7064 48.0559 11.7938 49.4028C11.7938 49.5597 11.8562 49.7102 11.9672 49.8212C12.0782 49.9321 12.2288 49.9944 12.3858 49.9944C12.5428 49.9944 12.6933 49.9321 12.8043 49.8212C12.9153 49.7102 12.9777 49.5597 12.9777 49.4028C12.9747 48.0699 12.563 46.77 11.7982 45.6782C11.0334 44.5863 9.95218 43.755 8.7002 43.2963C9.27217 42.8364 9.68698 42.2102 9.88723 41.5042C10.0875 40.7983 10.0633 40.0477 9.81792 39.3561C9.57258 38.6646 9.11826 38.0663 8.51784 37.6442C7.91741 37.2221 7.20057 36.997 6.46652 37H6.50003ZM6.50003 38.1834C6.96721 38.1834 7.4239 38.3218 7.81235 38.5813C8.2008 38.8407 8.50355 39.2095 8.68234 39.6409C8.86112 40.0724 8.9079 40.5471 8.81675 41.0051C8.72561 41.4631 8.50064 41.8838 8.17029 42.214C7.83995 42.5442 7.41906 42.7691 6.96085 42.8602C6.50265 42.9513 6.02771 42.9045 5.59609 42.7258C5.16447 42.5471 4.79555 42.2445 4.536 41.8562C4.27645 41.4679 4.13791 41.0115 4.13791 40.5445C4.13644 40.234 4.19652 39.9263 4.31471 39.6392C4.43289 39.352 4.60683 39.0912 4.82646 38.8716C5.0461 38.6521 5.30709 38.4782 5.59434 38.3601C5.88159 38.242 6.18942 38.1819 6.50003 38.1834Z" fill="#CACACA"/>
</g>
<g clip-path="url(#clip18_0_1)">
<path fill-rule="evenodd" clip-rule="evenodd" d="M111.5 37C110.766 36.997 110.049 37.2221 109.449 37.6442C108.848 38.0663 108.394 38.6646 108.149 39.3561C107.903 40.0477 107.879 40.7983 108.079 41.5042C108.28 42.2102 108.694 42.8364 109.266 43.2963C108.016 43.7555 106.936 44.5872 106.173 45.6792C105.41 46.7712 105.001 48.0709 105 49.4028C104.999 49.4807 105.014 49.558 105.044 49.6301C105.073 49.7022 105.117 49.7677 105.172 49.8228C105.227 49.8779 105.292 49.9215 105.365 49.9509C105.437 49.9804 105.514 49.9952 105.592 49.9944C105.748 49.993 105.898 49.9302 106.009 49.8195C106.12 49.7089 106.182 49.5592 106.184 49.4028C106.271 48.0559 106.868 46.7927 107.854 45.8698C108.839 44.9468 110.139 44.4332 111.489 44.4332C112.839 44.4332 114.139 44.9468 115.124 45.8698C116.109 46.7927 116.706 48.0559 116.794 49.4028C116.794 49.5597 116.856 49.7102 116.967 49.8212C117.078 49.9321 117.229 49.9944 117.386 49.9944C117.543 49.9944 117.693 49.9321 117.804 49.8212C117.915 49.7102 117.978 49.5597 117.978 49.4028C117.975 48.0699 117.563 46.77 116.798 45.6782C116.033 44.5863 114.952 43.755 113.7 43.2963C114.272 42.8364 114.687 42.2102 114.887 41.5042C115.087 40.7983 115.063 40.0477 114.818 39.3561C114.573 38.6646 114.118 38.0663 113.518 37.6442C112.917 37.2221 112.201 36.997 111.467 37H111.5ZM111.5 38.1834C111.967 38.1834 112.424 38.3218 112.812 38.5813C113.201 38.8407 113.504 39.2095 113.682 39.6409C113.861 40.0724 113.908 40.5471 113.817 41.0051C113.726 41.4631 113.501 41.8838 113.17 42.214C112.84 42.5442 112.419 42.7691 111.961 42.8602C111.503 42.9513 111.028 42.9045 110.596 42.7258C110.164 42.5471 109.796 42.2445 109.536 41.8562C109.276 41.4679 109.138 41.0115 109.138 40.5445C109.136 40.234 109.197 39.9263 109.315 39.6392C109.433 39.352 109.607 39.0912 109.826 38.8716C110.046 38.6521 110.307 38.4782 110.594 38.3601C110.882 38.242 111.189 38.1819 111.5 38.1834Z" fill="#CACACA"/>
</g>
<defs>
<clipPath id="clip0_0_1">
<rect width="50" height="50" fill="white" transform="translate(49)"/>
</clipPath>
<clipPath id="clip1_0_1">
<rect width="13" height="13" fill="white" transform="translate(15 19)"/>
</clipPath>
<clipPath id="clip2_0_1">
<rect width="13" height="13" fill="white" transform="translate(120 19)"/>
</clipPath>
<clipPath id="clip3_0_1">
<rect width="13" height="13" fill="white" transform="translate(0 19)"/>
</clipPath>
<clipPath id="clip4_0_1">
<rect width="13" height="13" fill="white" transform="translate(105 19)"/>
</clipPath>
<clipPath id="clip5_0_1">
<rect width="13" height="13" fill="white" transform="translate(15 1)"/>
</clipPath>
<clipPath id="clip6_0_1">
<rect width="13" height="13" fill="white" transform="translate(120 1)"/>
</clipPath>
<clipPath id="clip7_0_1">
<rect width="13" height="13" fill="white" transform="translate(0 1)"/>
</clipPath>
<clipPath id="clip8_0_1">
<rect width="13" height="13" fill="white" transform="translate(105 1)"/>
</clipPath>
<clipPath id="clip9_0_1">
<rect width="13" height="13" fill="white" transform="translate(30 19)"/>
</clipPath>
<clipPath id="clip10_0_1">
<rect width="13" height="13" fill="white" transform="translate(135 19)"/>
</clipPath>
<clipPath id="clip11_0_1">
<rect width="13" height="13" fill="white" transform="translate(30 1)"/>
</clipPath>
<clipPath id="clip12_0_1">
<rect width="13" height="13" fill="white" transform="translate(135 1)"/>
</clipPath>
<clipPath id="clip13_0_1">
<rect width="13" height="13" fill="white" transform="translate(30 37)"/>
</clipPath>
<clipPath id="clip14_0_1">
<rect width="13" height="13" fill="white" transform="translate(135 37)"/>
</clipPath>
<clipPath id="clip15_0_1">
<rect width="13" height="13" fill="white" transform="translate(15 37)"/>
</clipPath>
<clipPath id="clip16_0_1">
<rect width="13" height="13" fill="white" transform="translate(120 37)"/>
</clipPath>
<clipPath id="clip17_0_1">
<rect width="13" height="13" fill="white" transform="translate(0 37)"/>
</clipPath>
<clipPath id="clip18_0_1">
<rect width="13" height="13" fill="white" transform="translate(105 37)"/>
</clipPath>
</defs>
</svg>
