<svg width="144" height="50" viewBox="0 0 144 50" fill="none" xmlns="http://www.w3.org/2000/svg">
<g clip-path="url(#clip0_0_1)">
<path fill-rule="evenodd" clip-rule="evenodd" d="M72.0001 0.000115859C69.1768 -0.011525 66.4198 0.854313 64.1104 2.4778C61.8011 4.10129 60.0537 6.40215 59.1101 9.06195C58.1665 11.7217 58.0734 14.609 58.8436 17.324C59.6137 20.039 61.2092 22.4477 63.409 24.2165C58.5983 25.9827 54.4455 29.1816 51.5112 33.3816C48.5769 37.5815 47.0023 42.5803 47.0001 47.703C46.9972 48.0026 47.0542 48.2998 47.1676 48.5772C47.281 48.8546 47.4485 49.1066 47.6605 49.3185C47.8725 49.5304 48.1246 49.6979 48.4021 49.8113C48.6796 49.9246 48.977 49.9815 49.2767 49.9786C49.8788 49.973 50.4546 49.7315 50.8804 49.3059C51.3061 48.8804 51.5478 48.3048 51.5534 47.703C51.8898 42.5226 54.1859 37.6644 57.9753 34.1145C61.7648 30.5646 66.7636 28.5891 71.9571 28.5891C77.1506 28.5891 82.1495 30.5646 85.939 34.1145C89.7284 37.6644 92.0245 42.5226 92.3609 47.703C92.3609 48.3065 92.6008 48.8853 93.0277 49.3121C93.4547 49.7389 94.0338 49.9786 94.6376 49.9786C95.2414 49.9786 95.8204 49.7389 96.2474 49.3121C96.6743 48.8853 96.9142 48.3065 96.9142 47.703C96.9026 42.5766 95.3193 37.5769 92.3778 33.3775C89.4362 29.1782 85.2776 25.9809 80.4623 24.2165C82.6622 22.4477 84.2576 20.039 85.0278 17.324C85.798 14.609 85.7048 11.7217 84.7612 9.06195C83.8176 6.40215 82.0702 4.10129 79.7609 2.4778C77.4516 0.854313 74.6945 -0.011525 71.8712 0.000115859H72.0001ZM72.0001 4.55142C73.797 4.55142 75.5535 5.08402 77.0475 6.08187C78.5415 7.07972 79.706 8.49801 80.3936 10.1574C81.0812 11.8167 81.2611 13.6426 80.9106 15.4042C80.56 17.1658 79.6948 18.7839 78.4242 20.0539C77.1536 21.3239 75.5348 22.1888 73.7725 22.5392C72.0102 22.8896 70.1835 22.7098 68.5234 22.0225C66.8633 21.3351 65.4444 20.1712 64.4462 18.6778C63.4479 17.1844 62.9151 15.4287 62.9151 13.6326C62.9094 12.4384 63.1405 11.255 63.595 10.1507C64.0496 9.04631 64.7186 8.04295 65.5633 7.19855C66.4081 6.35416 67.4119 5.68546 68.5167 5.2311C69.6215 4.77675 70.8054 4.54574 72.0001 4.55142Z" fill="#CACACA"/>
</g>
<g clip-path="url(#clip1_0_1)">
<path fill-rule="evenodd" clip-rule="evenodd" d="M112.5 4.40264e-05C111.427 -0.00437952 110.38 0.324639 109.502 0.941565C108.624 1.55849 107.96 2.43282 107.602 3.44354C107.243 4.45426 107.208 5.5514 107.501 6.58312C107.793 7.61484 108.399 8.53011 109.235 9.20228C107.407 9.87342 105.829 11.089 104.714 12.685C103.599 14.281 103.001 16.1805 103 18.1271C102.999 18.241 103.021 18.3539 103.064 18.4593C103.107 18.5648 103.17 18.6605 103.251 18.741C103.332 18.8216 103.427 18.8852 103.533 18.9283C103.638 18.9714 103.751 18.993 103.865 18.9919C104.094 18.9898 104.313 18.898 104.475 18.7363C104.636 18.5745 104.728 18.3558 104.73 18.1271C104.858 16.1586 105.731 14.3125 107.171 12.9635C108.611 11.6145 110.51 10.8639 112.484 10.8639C114.457 10.8639 116.357 11.6145 117.797 12.9635C119.237 14.3125 120.109 16.1586 120.237 18.1271C120.237 18.3565 120.328 18.5764 120.491 18.7386C120.653 18.9008 120.873 18.9919 121.102 18.9919C121.332 18.9919 121.552 18.9008 121.714 18.7386C121.876 18.5764 121.967 18.3565 121.967 18.1271C121.963 16.1791 121.361 14.2792 120.244 12.6835C119.126 11.0877 117.545 9.87274 115.716 9.20228C116.552 8.53011 117.158 7.61484 117.451 6.58312C117.743 5.5514 117.708 4.45426 117.349 3.44354C116.991 2.43282 116.327 1.55849 115.449 0.941565C114.572 0.324639 113.524 -0.00437952 112.451 4.40264e-05H112.5ZM112.5 1.72954C113.183 1.72954 113.85 1.93193 114.418 2.31111C114.986 2.6903 115.428 3.22924 115.69 3.8598C115.951 4.49036 116.019 5.18421 115.886 5.8536C115.753 6.523 115.424 7.13788 114.941 7.62049C114.458 8.1031 113.843 8.43176 113.174 8.56491C112.504 8.69806 111.81 8.62972 111.179 8.36854C110.548 8.10735 110.009 7.66505 109.63 7.09756C109.25 6.53007 109.048 5.86289 109.048 5.18038C109.046 4.7266 109.133 4.2769 109.306 3.85725C109.479 3.4376 109.733 3.05632 110.054 2.73545C110.375 2.41458 110.757 2.16048 111.176 1.98782C111.596 1.81516 112.046 1.72738 112.5 1.72954Z" fill="#CACACA"/>
</g>
<g clip-path="url(#clip2_0_1)">
<path fill-rule="evenodd" clip-rule="evenodd" d="M134.5 4.40264e-05C133.427 -0.00437952 132.38 0.324639 131.502 0.941565C130.624 1.55849 129.96 2.43282 129.602 3.44354C129.243 4.45426 129.208 5.5514 129.501 6.58312C129.793 7.61484 130.399 8.53011 131.235 9.20228C129.407 9.87342 127.829 11.089 126.714 12.685C125.599 14.281 125.001 16.1805 125 18.1271C124.999 18.241 125.021 18.3539 125.064 18.4593C125.107 18.5648 125.17 18.6605 125.251 18.741C125.332 18.8216 125.427 18.8852 125.533 18.9283C125.638 18.9714 125.751 18.993 125.865 18.9919C126.094 18.9898 126.313 18.898 126.475 18.7363C126.636 18.5745 126.728 18.3558 126.73 18.1271C126.858 16.1586 127.731 14.3125 129.171 12.9635C130.611 11.6145 132.51 10.8639 134.484 10.8639C136.457 10.8639 138.357 11.6145 139.797 12.9635C141.237 14.3125 142.109 16.1586 142.237 18.1271C142.237 18.3565 142.328 18.5764 142.491 18.7386C142.653 18.9008 142.873 18.9919 143.102 18.9919C143.332 18.9919 143.552 18.9008 143.714 18.7386C143.876 18.5764 143.967 18.3565 143.967 18.1271C143.963 16.1791 143.361 14.2792 142.244 12.6835C141.126 11.0877 139.545 9.87274 137.716 9.20228C138.552 8.53011 139.158 7.61484 139.451 6.58312C139.743 5.5514 139.708 4.45426 139.349 3.44354C138.991 2.43282 138.327 1.55849 137.449 0.941565C136.572 0.324639 135.524 -0.00437952 134.451 4.40264e-05H134.5ZM134.5 1.72954C135.183 1.72954 135.85 1.93193 136.418 2.31111C136.986 2.6903 137.428 3.22924 137.69 3.8598C137.951 4.49036 138.019 5.18421 137.886 5.8536C137.753 6.523 137.424 7.13788 136.941 7.62049C136.458 8.1031 135.843 8.43176 135.174 8.56491C134.504 8.69806 133.81 8.62972 133.179 8.36854C132.548 8.10735 132.009 7.66505 131.63 7.09756C131.25 6.53007 131.048 5.86289 131.048 5.18038C131.046 4.7266 131.133 4.2769 131.306 3.85725C131.479 3.4376 131.733 3.05632 132.054 2.73545C132.375 2.41458 132.757 2.16048 133.176 1.98782C133.596 1.81516 134.046 1.72738 134.5 1.72954Z" fill="#CACACA"/>
</g>
<g clip-path="url(#clip3_0_1)">
<path fill-rule="evenodd" clip-rule="evenodd" d="M9.50004 4.40264e-05C8.4272 -0.00437952 7.37951 0.324639 6.50196 0.941565C5.62442 1.55849 4.96041 2.43282 4.60185 3.44354C4.24328 4.45426 4.20788 5.5514 4.50055 6.58312C4.79322 7.61484 5.39948 8.53011 6.23544 9.20228C4.40736 9.87342 2.8293 11.089 1.71426 12.685C0.59922 14.281 0.000891016 16.1805 3.92431e-05 18.1271C-0.0010509 18.241 0.0205817 18.3539 0.0636721 18.4593C0.106762 18.5648 0.170446 18.6605 0.250997 18.741C0.331549 18.8216 0.427353 18.8852 0.532807 18.9283C0.638261 18.9714 0.751247 18.993 0.86516 18.9919C1.09394 18.9898 1.31276 18.898 1.47454 18.7363C1.63632 18.5745 1.72815 18.3558 1.73028 18.1271C1.85814 16.1586 2.73062 14.3125 4.17062 12.9635C5.61061 11.6145 7.51019 10.8639 9.48372 10.8639C11.4572 10.8639 13.3568 11.6145 14.7968 12.9635C16.2368 14.3125 17.1093 16.1586 17.2372 18.1271C17.2372 18.3565 17.3283 18.5764 17.4905 18.7386C17.6528 18.9008 17.8728 18.9919 18.1023 18.9919C18.3317 18.9919 18.5518 18.9008 18.714 18.7386C18.8762 18.5764 18.9674 18.3565 18.9674 18.1271C18.963 16.1791 18.3614 14.2792 17.2436 12.6835C16.1257 11.0877 14.5455 9.87274 12.7157 9.20228C13.5516 8.53011 14.1579 7.61484 14.4506 6.58312C14.7432 5.5514 14.7078 4.45426 14.3493 3.44354C13.9907 2.43282 13.3267 1.55849 12.4491 0.941565C11.5716 0.324639 10.5239 -0.00437952 9.45107 4.40264e-05H9.50004ZM9.50004 1.72954C10.1828 1.72954 10.8503 1.93193 11.418 2.31111C11.9858 2.6903 12.4283 3.22924 12.6896 3.8598C12.9509 4.49036 13.0192 5.18421 12.886 5.8536C12.7528 6.523 12.424 7.13788 11.9412 7.62049C11.4584 8.1031 10.8432 8.43176 10.1736 8.56491C9.50387 8.69806 8.80972 8.62972 8.17889 8.36854C7.54807 8.10735 7.00889 7.66505 6.62954 7.09756C6.2502 6.53007 6.04772 5.86289 6.04772 5.18038C6.04556 4.7266 6.13338 4.2769 6.30611 3.85725C6.47884 3.4376 6.73305 3.05632 7.05406 2.73545C7.37507 2.41458 7.75651 2.16048 8.17634 1.98782C8.59617 1.81516 9.04607 1.72738 9.50004 1.72954Z" fill="#CACACA"/>
</g>
<g clip-path="url(#clip4_0_1)">
<path fill-rule="evenodd" clip-rule="evenodd" d="M31.5 4.40264e-05C30.4272 -0.00437952 29.3795 0.324639 28.502 0.941565C27.6244 1.55849 26.9604 2.43282 26.6018 3.44354C26.2433 4.45426 26.2079 5.5514 26.5006 6.58312C26.7932 7.61484 27.3995 8.53011 28.2354 9.20228C26.4074 9.87342 24.8293 11.089 23.7143 12.685C22.5992 14.281 22.0009 16.1805 22 18.1271C21.9989 18.241 22.0206 18.3539 22.0637 18.4593C22.1068 18.5648 22.1704 18.6605 22.251 18.741C22.3315 18.8216 22.4274 18.8852 22.5328 18.9283C22.6383 18.9714 22.7512 18.993 22.8652 18.9919C23.0939 18.9898 23.3128 18.898 23.4745 18.7363C23.6363 18.5745 23.7282 18.3558 23.7303 18.1271C23.8581 16.1586 24.7306 14.3125 26.1706 12.9635C27.6106 11.6145 29.5102 10.8639 31.4837 10.8639C33.4572 10.8639 35.3568 11.6145 36.7968 12.9635C38.2368 14.3125 39.1093 16.1586 39.2372 18.1271C39.2372 18.3565 39.3283 18.5764 39.4905 18.7386C39.6528 18.9008 39.8728 18.9919 40.1023 18.9919C40.3317 18.9919 40.5518 18.9008 40.714 18.7386C40.8762 18.5764 40.9674 18.3565 40.9674 18.1271C40.963 16.1791 40.3614 14.2792 39.2436 12.6835C38.1257 11.0877 36.5455 9.87274 34.7157 9.20228C35.5516 8.53011 36.1579 7.61484 36.4506 6.58312C36.7432 5.5514 36.7078 4.45426 36.3493 3.44354C35.9907 2.43282 35.3267 1.55849 34.4491 0.941565C33.5716 0.324639 32.5239 -0.00437952 31.4511 4.40264e-05H31.5ZM31.5 1.72954C32.1828 1.72954 32.8503 1.93193 33.418 2.31111C33.9858 2.6903 34.4283 3.22924 34.6896 3.8598C34.9509 4.49036 35.0192 5.18421 34.886 5.8536C34.7528 6.523 34.424 7.13788 33.9412 7.62049C33.4584 8.1031 32.8432 8.43176 32.1736 8.56491C31.5039 8.69806 30.8097 8.62972 30.1789 8.36854C29.5481 8.10735 29.0089 7.66505 28.6295 7.09756C28.2502 6.53007 28.0477 5.86289 28.0477 5.18038C28.0456 4.7266 28.1334 4.2769 28.3061 3.85725C28.4788 3.4376 28.7331 3.05632 29.0541 2.73545C29.3751 2.41458 29.7565 2.16048 30.1763 1.98782C30.5962 1.81516 31.0461 1.72738 31.5 1.72954Z" fill="#CACACA"/>
</g>
<g clip-path="url(#clip5_0_1)">
<path fill-rule="evenodd" clip-rule="evenodd" d="M31.5 31C30.4272 30.9956 29.3795 31.3246 28.502 31.9416C27.6244 32.5585 26.9604 33.4328 26.6018 34.4435C26.2433 35.4543 26.2079 36.5514 26.5006 37.5831C26.7932 38.6148 27.3995 39.5301 28.2354 40.2023C26.4074 40.8734 24.8293 42.089 23.7143 43.685C22.5992 45.281 22.0009 47.1805 22 49.1271C21.9989 49.241 22.0206 49.3539 22.0637 49.4593C22.1068 49.5648 22.1704 49.6605 22.251 49.741C22.3315 49.8216 22.4274 49.8852 22.5328 49.9283C22.6383 49.9714 22.7512 49.993 22.8652 49.9919C23.0939 49.9898 23.3128 49.898 23.4745 49.7363C23.6363 49.5745 23.7282 49.3558 23.7303 49.1271C23.8581 47.1586 24.7306 45.3125 26.1706 43.9635C27.6106 42.6145 29.5102 41.8639 31.4837 41.8639C33.4572 41.8639 35.3568 42.6145 36.7968 43.9635C38.2368 45.3125 39.1093 47.1586 39.2372 49.1271C39.2372 49.3565 39.3283 49.5764 39.4905 49.7386C39.6528 49.9008 39.8728 49.9919 40.1023 49.9919C40.3317 49.9919 40.5518 49.9008 40.714 49.7386C40.8762 49.5764 40.9674 49.3565 40.9674 49.1271C40.963 47.1791 40.3614 45.2792 39.2436 43.6835C38.1257 42.0877 36.5455 40.8727 34.7157 40.2023C35.5516 39.5301 36.1579 38.6148 36.4506 37.5831C36.7432 36.5514 36.7078 35.4543 36.3493 34.4435C35.9907 33.4328 35.3267 32.5585 34.4491 31.9416C33.5716 31.3246 32.5239 30.9956 31.4511 31H31.5ZM31.5 32.7295C32.1828 32.7295 32.8503 32.9319 33.418 33.3111C33.9858 33.6903 34.4283 34.2292 34.6896 34.8598C34.9509 35.4904 35.0192 36.1842 34.886 36.8536C34.7528 37.523 34.424 38.1379 33.9412 38.6205C33.4584 39.1031 32.8432 39.4318 32.1736 39.5649C31.5039 39.6981 30.8097 39.6297 30.1789 39.3685C29.5481 39.1074 29.0089 38.665 28.6295 38.0976C28.2502 37.5301 28.0477 36.8629 28.0477 36.1804C28.0456 35.7266 28.1334 35.2769 28.3061 34.8572C28.4788 34.4376 28.7331 34.0563 29.0541 33.7355C29.3751 33.4146 29.7565 33.1605 30.1763 32.9878C30.5962 32.8152 31.0461 32.7274 31.5 32.7295Z" fill="#CACACA"/>
</g>
<g clip-path="url(#clip6_0_1)">
<path fill-rule="evenodd" clip-rule="evenodd" d="M112.5 31C111.427 30.9956 110.38 31.3246 109.502 31.9416C108.624 32.5585 107.96 33.4328 107.602 34.4435C107.243 35.4543 107.208 36.5514 107.501 37.5831C107.793 38.6148 108.399 39.5301 109.235 40.2023C107.407 40.8734 105.829 42.089 104.714 43.685C103.599 45.281 103.001 47.1805 103 49.1271C102.999 49.241 103.021 49.3539 103.064 49.4593C103.107 49.5648 103.17 49.6605 103.251 49.741C103.332 49.8216 103.427 49.8852 103.533 49.9283C103.638 49.9714 103.751 49.993 103.865 49.9919C104.094 49.9898 104.313 49.898 104.475 49.7363C104.636 49.5745 104.728 49.3558 104.73 49.1271C104.858 47.1586 105.731 45.3125 107.171 43.9635C108.611 42.6145 110.51 41.8639 112.484 41.8639C114.457 41.8639 116.357 42.6145 117.797 43.9635C119.237 45.3125 120.109 47.1586 120.237 49.1271C120.237 49.3565 120.328 49.5764 120.491 49.7386C120.653 49.9008 120.873 49.9919 121.102 49.9919C121.332 49.9919 121.552 49.9008 121.714 49.7386C121.876 49.5764 121.967 49.3565 121.967 49.1271C121.963 47.1791 121.361 45.2792 120.244 43.6835C119.126 42.0877 117.545 40.8727 115.716 40.2023C116.552 39.5301 117.158 38.6148 117.451 37.5831C117.743 36.5514 117.708 35.4543 117.349 34.4435C116.991 33.4328 116.327 32.5585 115.449 31.9416C114.572 31.3246 113.524 30.9956 112.451 31H112.5ZM112.5 32.7295C113.183 32.7295 113.85 32.9319 114.418 33.3111C114.986 33.6903 115.428 34.2292 115.69 34.8598C115.951 35.4904 116.019 36.1842 115.886 36.8536C115.753 37.523 115.424 38.1379 114.941 38.6205C114.458 39.1031 113.843 39.4318 113.174 39.5649C112.504 39.6981 111.81 39.6297 111.179 39.3685C110.548 39.1074 110.009 38.665 109.63 38.0976C109.25 37.5301 109.048 36.8629 109.048 36.1804C109.046 35.7266 109.133 35.2769 109.306 34.8572C109.479 34.4376 109.733 34.0563 110.054 33.7355C110.375 33.4146 110.757 33.1605 111.176 32.9878C111.596 32.8152 112.046 32.7274 112.5 32.7295Z" fill="#CACACA"/>
</g>
<g clip-path="url(#clip7_0_1)">
<path fill-rule="evenodd" clip-rule="evenodd" d="M134.5 31C133.427 30.9956 132.38 31.3246 131.502 31.9416C130.624 32.5585 129.96 33.4328 129.602 34.4435C129.243 35.4543 129.208 36.5514 129.501 37.5831C129.793 38.6148 130.399 39.5301 131.235 40.2023C129.407 40.8734 127.829 42.089 126.714 43.685C125.599 45.281 125.001 47.1805 125 49.1271C124.999 49.241 125.021 49.3539 125.064 49.4593C125.107 49.5648 125.17 49.6605 125.251 49.741C125.332 49.8216 125.427 49.8852 125.533 49.9283C125.638 49.9714 125.751 49.993 125.865 49.9919C126.094 49.9898 126.313 49.898 126.475 49.7363C126.636 49.5745 126.728 49.3558 126.73 49.1271C126.858 47.1586 127.731 45.3125 129.171 43.9635C130.611 42.6145 132.51 41.8639 134.484 41.8639C136.457 41.8639 138.357 42.6145 139.797 43.9635C141.237 45.3125 142.109 47.1586 142.237 49.1271C142.237 49.3565 142.328 49.5764 142.491 49.7386C142.653 49.9008 142.873 49.9919 143.102 49.9919C143.332 49.9919 143.552 49.9008 143.714 49.7386C143.876 49.5764 143.967 49.3565 143.967 49.1271C143.963 47.1791 143.361 45.2792 142.244 43.6835C141.126 42.0877 139.545 40.8727 137.716 40.2023C138.552 39.5301 139.158 38.6148 139.451 37.5831C139.743 36.5514 139.708 35.4543 139.349 34.4435C138.991 33.4328 138.327 32.5585 137.449 31.9416C136.572 31.3246 135.524 30.9956 134.451 31H134.5ZM134.5 32.7295C135.183 32.7295 135.85 32.9319 136.418 33.3111C136.986 33.6903 137.428 34.2292 137.69 34.8598C137.951 35.4904 138.019 36.1842 137.886 36.8536C137.753 37.523 137.424 38.1379 136.941 38.6205C136.458 39.1031 135.843 39.4318 135.174 39.5649C134.504 39.6981 133.81 39.6297 133.179 39.3685C132.548 39.1074 132.009 38.665 131.63 38.0976C131.25 37.5301 131.048 36.8629 131.048 36.1804C131.046 35.7266 131.133 35.2769 131.306 34.8572C131.479 34.4376 131.733 34.0563 132.054 33.7355C132.375 33.4146 132.757 33.1605 133.176 32.9878C133.596 32.8152 134.046 32.7274 134.5 32.7295Z" fill="#CACACA"/>
</g>
<g clip-path="url(#clip8_0_1)">
<path fill-rule="evenodd" clip-rule="evenodd" d="M9.50004 31C8.4272 30.9956 7.37951 31.3246 6.50196 31.9416C5.62442 32.5585 4.96041 33.4328 4.60185 34.4435C4.24328 35.4543 4.20788 36.5514 4.50055 37.5831C4.79322 38.6148 5.39948 39.5301 6.23544 40.2023C4.40736 40.8734 2.8293 42.089 1.71426 43.685C0.59922 45.281 0.000891016 47.1805 3.92431e-05 49.1271C-0.0010509 49.241 0.0205817 49.3539 0.0636721 49.4593C0.106762 49.5648 0.170446 49.6605 0.250997 49.741C0.331549 49.8216 0.427353 49.8852 0.532807 49.9283C0.638261 49.9714 0.751247 49.993 0.86516 49.9919C1.09394 49.9898 1.31276 49.898 1.47454 49.7363C1.63632 49.5745 1.72815 49.3558 1.73028 49.1271C1.85814 47.1586 2.73062 45.3125 4.17062 43.9635C5.61061 42.6145 7.51019 41.8639 9.48372 41.8639C11.4572 41.8639 13.3568 42.6145 14.7968 43.9635C16.2368 45.3125 17.1093 47.1586 17.2372 49.1271C17.2372 49.3565 17.3283 49.5764 17.4905 49.7386C17.6528 49.9008 17.8728 49.9919 18.1023 49.9919C18.3317 49.9919 18.5518 49.9008 18.714 49.7386C18.8762 49.5764 18.9674 49.3565 18.9674 49.1271C18.963 47.1791 18.3614 45.2792 17.2436 43.6835C16.1257 42.0877 14.5455 40.8727 12.7157 40.2023C13.5516 39.5301 14.1579 38.6148 14.4506 37.5831C14.7432 36.5514 14.7078 35.4543 14.3493 34.4435C13.9907 33.4328 13.3267 32.5585 12.4491 31.9416C11.5716 31.3246 10.5239 30.9956 9.45107 31H9.50004ZM9.50004 32.7295C10.1828 32.7295 10.8503 32.9319 11.418 33.3111C11.9858 33.6903 12.4283 34.2292 12.6896 34.8598C12.9509 35.4904 13.0192 36.1842 12.886 36.8536C12.7528 37.523 12.424 38.1379 11.9412 38.6205C11.4584 39.1031 10.8432 39.4318 10.1736 39.5649C9.50387 39.6981 8.80972 39.6297 8.17889 39.3685C7.54807 39.1074 7.00889 38.665 6.62954 38.0976C6.2502 37.5301 6.04772 36.8629 6.04772 36.1804C6.04556 35.7266 6.13338 35.2769 6.30611 34.8572C6.47884 34.4376 6.73305 34.0563 7.05406 33.7355C7.37507 33.4146 7.75651 33.1605 8.17634 32.9878C8.59617 32.8152 9.04607 32.7274 9.50004 32.7295Z" fill="#CACACA"/>
</g>
<defs>
<clipPath id="clip0_0_1">
<rect width="50" height="50" fill="white" transform="translate(47)"/>
</clipPath>
<clipPath id="clip1_0_1">
<rect width="19" height="19" fill="white" transform="translate(103)"/>
</clipPath>
<clipPath id="clip2_0_1">
<rect width="19" height="19" fill="white" transform="translate(125)"/>
</clipPath>
<clipPath id="clip3_0_1">
<rect width="19" height="19" fill="white"/>
</clipPath>
<clipPath id="clip4_0_1">
<rect width="19" height="19" fill="white" transform="translate(22)"/>
</clipPath>
<clipPath id="clip5_0_1">
<rect width="19" height="19" fill="white" transform="translate(22 31)"/>
</clipPath>
<clipPath id="clip6_0_1">
<rect width="19" height="19" fill="white" transform="translate(103 31)"/>
</clipPath>
<clipPath id="clip7_0_1">
<rect width="19" height="19" fill="white" transform="translate(125 31)"/>
</clipPath>
<clipPath id="clip8_0_1">
<rect width="19" height="19" fill="white" transform="translate(0 31)"/>
</clipPath>
</defs>
</svg>
