<svg width="50" height="50" viewBox="0 0 50 50" fill="none" xmlns="http://www.w3.org/2000/svg">
<path fill-rule="evenodd" clip-rule="evenodd" d="M25.0001 0.000115859C22.1768 -0.011525 19.4198 0.854313 17.1104 2.4778C14.8011 4.10129 13.0537 6.40215 12.1101 9.06195C11.1665 11.7217 11.0734 14.609 11.8436 17.324C12.6137 20.039 14.2092 22.4477 16.409 24.2165C11.5983 25.9827 7.44553 29.1816 4.51121 33.3816C1.57689 37.5815 0.00234478 42.5803 0.000103271 47.703C-0.00276553 48.0026 0.0541625 48.2998 0.167558 48.5772C0.280954 48.8546 0.448541 49.1066 0.66052 49.3185C0.872498 49.5304 1.12461 49.6979 1.40212 49.8113C1.67963 49.9246 1.97697 49.9815 2.27674 49.9786C2.8788 49.973 3.45462 49.7315 3.88037 49.3059C4.30611 48.8804 4.54777 48.3048 4.55337 47.703C4.88984 42.5226 7.18585 37.6644 10.9753 34.1145C14.7648 30.5646 19.7636 28.5891 24.9571 28.5891C30.1506 28.5891 35.1495 30.5646 38.939 34.1145C42.7284 37.6644 45.0245 42.5226 45.3609 47.703C45.3609 48.3065 45.6008 48.8853 46.0277 49.3121C46.4547 49.7389 47.0338 49.9786 47.6376 49.9786C48.2414 49.9786 48.8204 49.7389 49.2474 49.3121C49.6743 48.8853 49.9142 48.3065 49.9142 47.703C49.9026 42.5766 48.3193 37.5769 45.3778 33.3775C42.4362 29.1782 38.2776 25.9809 33.4623 24.2165C35.6622 22.4477 37.2576 20.039 38.0278 17.324C38.798 14.609 38.7048 11.7217 37.7612 9.06195C36.8176 6.40215 35.0702 4.10129 32.7609 2.4778C30.4516 0.854313 27.6945 -0.011525 24.8712 0.000115859H25.0001ZM25.0001 4.55142C26.797 4.55142 28.5535 5.08402 30.0475 6.08187C31.5415 7.07972 32.706 8.49801 33.3936 10.1574C34.0812 11.8167 34.2611 13.6426 33.9106 15.4042C33.56 17.1658 32.6948 18.7839 31.4242 20.0539C30.1536 21.3239 28.5348 22.1888 26.7725 22.5392C25.0102 22.8896 23.1835 22.7098 21.5234 22.0225C19.8633 21.3351 18.4444 20.1712 17.4462 18.6778C16.4479 17.1844 15.9151 15.4287 15.9151 13.6326C15.9094 12.4384 16.1405 11.255 16.595 10.1507C17.0496 9.04631 17.7186 8.04295 18.5633 7.19855C19.4081 6.35416 20.4119 5.68546 21.5167 5.2311C22.6215 4.77675 23.8054 4.54574 25.0001 4.55142Z" fill="#CACACA"/>
</svg>
