<svg width="24" height="24" viewBox="0 0 24 24" fill="none" xmlns="http://www.w3.org/2000/svg">
<path d="M23.7675 22.6316C24.0795 22.9436 24.0795 23.4476 23.7675 23.7596C23.6075 23.9196 23.4075 23.9996 23.1995 23.9996C22.9915 23.9996 22.7915 23.9196 22.6315 23.7676L11.9995 13.1276L1.3675 23.7676C1.2075 23.9196 1.0075 23.9996 0.799497 23.9996C0.591498 23.9996 0.391497 23.9196 0.231498 23.7676C-0.0805024 23.4556 -0.0805024 22.9516 0.231498 22.6396L10.8715 11.9996L0.231498 1.36756C-0.0805024 1.05556 -0.0805024 0.551558 0.231498 0.239559C0.543497 -0.0724414 1.0475 -0.0724414 1.3595 0.239559L11.9995 10.8716L22.6315 0.231559C22.9435 -0.0804414 23.4475 -0.0804414 23.7595 0.231559C24.0715 0.543558 24.0715 1.04756 23.7595 1.35956L13.1275 11.9996L23.7675 22.6316Z" fill="black"/>
</svg>
