<svg width="20" height="20" viewBox="0 0 20 20" fill="none" xmlns="http://www.w3.org/2000/svg">
<path fill-rule="evenodd" clip-rule="evenodd" d="M6.0735 11.2539C6.22946 11.098 6.44096 11.0104 6.66148 11.0104C6.88201 11.0104 7.09351 11.098 7.24947 11.2539L9.98812 13.9926L12.7268 11.2539C12.8035 11.1745 12.8953 11.1111 12.9967 11.0675C13.0982 11.0239 13.2073 11.001 13.3178 11C13.4282 10.9991 13.5377 11.0201 13.6399 11.0619C13.7421 11.1037 13.835 11.1655 13.9131 11.2436C13.9911 11.3217 14.0529 11.4145 14.0947 11.5167C14.1365 11.6189 14.1576 11.7285 14.1566 11.8389C14.1557 11.9493 14.1327 12.0584 14.0891 12.1599C14.0455 12.2614 13.9822 12.3531 13.9027 12.4299L10.5761 15.7565C10.4201 15.9124 10.2086 16 9.98812 16C9.7676 16 9.5561 15.9124 9.40014 15.7565L6.0735 12.4299C5.91759 12.2739 5.83 12.0624 5.83 11.8419C5.83 11.6214 5.91759 11.4099 6.0735 11.2539Z" fill="#9CA3AF"/>
<path fill-rule="evenodd" clip-rule="evenodd" d="M13.9131 8.74586C13.7572 8.90177 13.5457 8.98936 13.3252 8.98936C13.1046 8.98936 12.8931 8.90177 12.7372 8.74586L9.99852 6.0072L7.25986 8.74586C7.18315 8.82529 7.09138 8.88865 6.98991 8.93224C6.88845 8.97582 6.77932 8.99876 6.66889 8.99972C6.55846 9.00068 6.44895 8.97964 6.34674 8.93782C6.24453 8.89601 6.15168 8.83425 6.07359 8.75617C5.9955 8.67808 5.93375 8.58523 5.89193 8.48302C5.85012 8.38081 5.82907 8.2713 5.83003 8.16087C5.83099 8.05044 5.85394 7.94131 5.89752 7.83985C5.94111 7.73838 6.00447 7.64661 6.0839 7.56989L9.41054 4.24325C9.5665 4.08734 9.77799 3.99976 9.99852 3.99976C10.219 3.99976 10.4305 4.08734 10.5865 4.24325L13.9131 7.56989C14.0691 7.72585 14.1566 7.93735 14.1566 8.15788C14.1566 8.3784 14.0691 8.5899 13.9131 8.74586Z" fill="#9CA3AF"/>
</svg>
