<svg width="15" height="15" viewBox="0 0 15 15" fill="none" xmlns="http://www.w3.org/2000/svg">
<path d="M5.80235 14.0075C5.16314 14.6381 4.30051 14.9902 3.40264 14.9872C2.50478 14.9841 1.64456 14.6261 1.00968 13.9912C0.374786 13.3563 0.0167534 12.4961 0.0136917 11.5982C0.0106299 10.7003 0.362788 9.83771 0.993332 9.1985L3.82237 6.36946C4.43063 5.76179 5.24627 5.40673 6.1055 5.37559C6.96473 5.34445 7.80392 5.63953 8.45458 6.20158C8.5141 6.25353 8.56281 6.31669 8.59793 6.38747C8.63304 6.45825 8.65387 6.53525 8.65923 6.61407C8.66459 6.6929 8.65437 6.77201 8.62915 6.84689C8.60393 6.92176 8.56421 6.99094 8.51226 7.05047C8.46031 7.10999 8.39715 7.15871 8.32637 7.19382C8.25559 7.22894 8.17859 7.24977 8.09976 7.25512C8.02094 7.26048 7.94183 7.25026 7.86695 7.22504C7.79208 7.19982 7.7229 7.16011 7.66337 7.10816C7.24475 6.74102 6.70154 6.54791 6.14511 6.56844C5.58868 6.58896 5.06117 6.82155 4.67073 7.21853L1.84204 10.0476C1.43709 10.4618 1.21181 11.019 1.21508 11.5982C1.21835 12.1775 1.44991 12.7321 1.85952 13.1417C2.26912 13.5513 2.82373 13.7829 3.40299 13.7861C3.98225 13.7894 4.53943 13.5641 4.95363 13.1592L7.78268 10.3305C7.83848 10.2748 7.9047 10.2306 7.97757 10.2005C8.05043 10.1704 8.12852 10.1549 8.20736 10.155C8.2862 10.1551 8.36426 10.1706 8.43708 10.2009C8.5099 10.2311 8.57604 10.2754 8.63175 10.3312C8.68745 10.387 8.73162 10.4532 8.76173 10.5261C8.79184 10.5989 8.80731 10.677 8.80724 10.7559C8.80717 10.8347 8.79158 10.9128 8.76134 10.9856C8.73111 11.0584 8.68683 11.1246 8.63103 11.1803L5.80235 14.0075ZM11.179 8.6327C10.5707 9.24045 9.75509 9.59556 8.89584 9.6267C8.03659 9.65784 7.19737 9.36271 6.54676 8.80058C6.4836 8.74985 6.43135 8.68689 6.39312 8.61548C6.35489 8.54406 6.33148 8.46566 6.3243 8.38497C6.31711 8.30429 6.3263 8.22298 6.3513 8.14593C6.3763 8.06888 6.41661 7.99768 6.46981 7.93659C6.523 7.8755 6.58799 7.82578 6.66087 7.79042C6.73375 7.75506 6.81302 7.73478 6.89392 7.7308C6.97483 7.72683 7.05571 7.73923 7.1317 7.76728C7.2077 7.79532 7.27725 7.83842 7.33617 7.894C7.75465 8.2615 8.29797 8.45481 8.85453 8.43422C9.41109 8.41362 9.93864 8.18069 10.3288 7.78327L13.1575 4.95458C13.5677 4.54145 13.7975 3.98257 13.7965 3.40036C13.7955 2.81815 13.5638 2.26007 13.1521 1.84836C12.7405 1.43665 12.1824 1.20487 11.6002 1.2038C11.018 1.20273 10.4591 1.43244 10.0459 1.84263L7.21687 4.67168C7.16114 4.72741 7.09498 4.77161 7.02217 4.80177C6.94936 4.83193 6.87132 4.84745 6.79251 4.84745C6.7137 4.84745 6.63566 4.83193 6.56285 4.80177C6.49004 4.77161 6.42388 4.72741 6.36816 4.67168C6.31243 4.61595 6.26822 4.54979 6.23806 4.47698C6.2079 4.40417 6.19238 4.32613 6.19238 4.24732C6.19238 4.16851 6.2079 4.09047 6.23806 4.01766C6.26822 3.94485 6.31243 3.87869 6.36816 3.82297L9.1972 0.993922C9.83501 0.356207 10.7 -0.00202012 11.602 -0.00195312C12.5039 -0.00188612 13.3689 0.35647 14.0066 0.994279C14.6443 1.63209 15.0025 2.49711 15.0024 3.39904C15.0024 4.30097 14.644 5.16594 14.0062 5.80365L11.179 8.6327Z" fill="white"/>
</svg>
