<svg width="61" height="19" viewBox="0 0 61 19" fill="none" xmlns="http://www.w3.org/2000/svg">
<g clip-path="url(#clip0_3028_18569)">
<path d="M21.4883 18.7279L24.5773 0.320312H29.5163L26.4273 18.7279H21.4883Z" fill="#0058A0"/>
<path d="M44.35 0.772609C42.9316 0.250769 41.4332 -0.010724 39.9247 0.000336749C35.0447 0.000336749 31.5947 2.49699 31.5947 6.07624C31.5669 8.72101 34.0486 10.195 35.9228 11.0766C37.7971 11.9582 38.4912 12.5542 38.4808 13.3617C38.4808 14.5924 36.9467 15.1566 35.5271 15.1566C33.9252 15.2046 32.3343 14.8738 30.8797 14.1904L30.241 13.8977L29.5469 18.02C30.6992 18.5349 32.8338 18.9792 35.0482 19.0003C40.2371 19.0003 43.6072 16.5319 43.6489 12.7128C43.6663 10.6182 42.3508 9.02428 39.5012 7.71247C37.7658 6.85909 36.7246 6.30193 36.7246 5.4274C36.7246 4.66218 37.62 3.84406 39.5533 3.84406C40.8202 3.81735 42.0787 4.05748 43.2497 4.54933L43.6905 4.76444L44.35 0.772609Z" fill="#0058A0"/>
<path d="M57.0008 0.335938H53.1829C51.9994 0.335938 51.1004 0.663889 50.5937 1.86285L43.2598 18.7329H48.4452C48.4452 18.7329 49.2956 16.462 49.4865 15.9647H55.8103C55.9596 16.6101 56.4108 18.7259 56.4108 18.7259H61.0096L57.0008 0.335938ZM50.9095 12.2021C51.3191 11.1442 52.8775 7.05717 52.8775 7.05717C52.8775 7.05717 53.2836 5.99926 53.5335 5.29399L53.8805 6.88085L55.0259 12.1951L50.9095 12.2021Z" fill="#0058A0"/>
<path d="M17.3478 0.335938L12.5129 12.8898L11.9958 10.3402C11.0968 7.39923 8.29237 4.2114 5.1582 2.61749L9.58006 18.7153H14.8037L22.5783 0.335938H17.3478Z" fill="#0058A0"/>
<path d="M8.02782 0.335556H0.0448944L-0.0175781 0.719927C6.17787 2.24331 10.2769 5.92483 11.9776 10.3504L10.2422 1.88715C9.94026 0.719926 9.07601 0.374348 8.00352 0.332031" fill="#FAA61A"/>
</g>
<defs>
<clipPath id="clip0_3028_18569">
<rect width="61" height="19" fill="white"/>
</clipPath>
</defs>
</svg>
